<!-- <svg width="56" height="62" viewBox="0 0 56 62" fill="none" xmlns="http://www.w3.org/2000/svg"> -->
<svg width="62" height="56" viewBox="0 0 62 56" fill="none" xmlns="http://www.w3.org/2000/svg">
    <path d="M55.8282 27.8513H61.1389C61.3673 27.8513 61.5863 27.9391 61.7478 28.0954C61.9093 28.2517 62 28.4637 62 28.6847C62 28.9058 61.9093 29.1178 61.7478 29.2741C61.5863 29.4304 61.3673 29.5182 61.1389 29.5182H55.8282C55.5999 29.5182 55.3808 29.4304 55.2193 29.2741C55.0579 29.1178 54.9671 28.9058 54.9671 28.6847C54.9671 28.4637 55.0579 28.2517 55.2193 28.0954C55.3808 27.9391 55.5999 27.8513 55.8282 27.8513ZM53.1974 47.347L49.4429 43.7132C49.363 43.6356 49.2681 43.574 49.1636 43.532C49.059 43.4899 48.947 43.4682 48.8338 43.468C48.7206 43.4679 48.6085 43.4893 48.5038 43.5311C48.3992 43.5729 48.3041 43.6342 48.2239 43.7115C48.1438 43.7889 48.0802 43.8808 48.0367 43.9819C47.9932 44.0831 47.9708 44.1915 47.9706 44.3011C47.9705 44.4106 47.9926 44.5192 48.0358 44.6204C48.0789 44.7217 48.1423 44.8138 48.2222 44.8913L51.9774 48.5258C52.1398 48.6776 52.3574 48.7615 52.5831 48.7595C52.8089 48.7576 53.0249 48.6699 53.1845 48.5153C53.3441 48.3607 53.4346 48.1517 53.4365 47.9331C53.4384 47.7146 53.3515 47.5041 53.1946 47.347H53.1974ZM32.5693 55.1666V50.0266C32.5693 49.8056 32.4786 49.5936 32.3171 49.4373C32.1556 49.281 31.9366 49.1932 31.7082 49.1932C31.4798 49.1932 31.2608 49.281 31.0993 49.4373C30.9378 49.5936 30.8471 49.8056 30.8471 50.0266V55.1666C30.8471 55.3876 30.9378 55.5996 31.0993 55.7559C31.2608 55.9122 31.4798 56 31.7082 56C31.9366 56 32.1556 55.9122 32.3171 55.7559C32.4786 55.5996 32.5693 55.3876 32.5693 55.1666ZM32.5693 5.97338V0.833433C32.5693 0.612392 32.4786 0.400406 32.3171 0.244107C32.1556 0.0878078 31.9366 0 31.7082 0C31.4798 0 31.2608 0.0878078 31.0993 0.244107C30.9378 0.400406 30.8471 0.612392 30.8471 0.833433V5.97338C30.8471 6.19442 30.9378 6.4064 31.0993 6.5627C31.2608 6.719 31.4798 6.80681 31.7082 6.80681C31.9366 6.80681 32.1556 6.719 32.3171 6.5627C32.4786 6.4064 32.5693 6.19442 32.5693 5.97338ZM47.9728 11.6981C47.9728 11.8629 48.0233 12.0241 48.1179 12.1612C48.2125 12.2983 48.347 12.4051 48.5044 12.4682C48.6618 12.5313 48.8349 12.5478 49.002 12.5156C49.1691 12.4835 49.3225 12.4041 49.4429 12.2875L53.1974 8.65303C53.2796 8.57617 53.3453 8.48422 53.3904 8.38255C53.4356 8.28088 53.4594 8.17153 53.4604 8.06087C53.4614 7.9502 53.4397 7.84045 53.3964 7.73801C53.3531 7.63558 53.2892 7.54251 53.2084 7.46423C53.1276 7.38595 53.0314 7.32404 52.9256 7.28211C52.8198 7.24017 52.7064 7.21906 52.5921 7.21999C52.4778 7.22092 52.3647 7.24388 52.2597 7.28753C52.1546 7.33118 52.0596 7.39464 51.9801 7.47422L48.2222 11.1087C48.1426 11.1862 48.0796 11.2782 48.0369 11.3793C47.9941 11.4804 47.9723 11.5888 47.9728 11.6981ZM34.0683 44.942C27.0809 44.942 24.8958 42.6931 22.7822 40.5182C21.1007 38.7886 19.5059 37.1498 15.3526 36.3677V36.9844C15.3527 37.0939 15.3305 37.2023 15.2872 37.3034C15.244 37.4046 15.1805 37.4965 15.1006 37.5739C15.0206 37.6513 14.9256 37.7127 14.8211 37.7546C14.7166 37.7964 14.6046 37.8179 14.4915 37.8178H9.33926C8.67712 37.8171 8.0423 37.5623 7.57402 37.1092C7.10575 36.6561 6.84227 36.0417 6.84135 35.4009V35.0162H4.28213C3.14671 35.0149 2.05817 34.5778 1.25537 33.8007C0.452575 33.0236 0.00109235 31.9699 -1.66893e-06 30.871V25.129C0.00109265 24.0301 0.452597 22.9766 1.25542 22.1996C2.05823 21.4225 3.14678 20.9856 4.28213 20.9845H6.84135V20.5991C6.84208 19.9581 7.10549 19.3436 7.57378 18.8904C8.04207 18.4371 8.677 18.1822 9.33926 18.1815H14.4915C14.6046 18.1814 14.7166 18.2029 14.8211 18.2448C14.9256 18.2866 15.0206 18.348 15.1006 18.4254C15.1805 18.5028 15.244 18.5947 15.2872 18.6959C15.3305 18.797 15.3527 18.9055 15.3526 19.0149V19.6317C19.5059 18.8496 21.1007 17.2107 22.7822 15.4805C24.8958 13.3062 27.0809 11.0573 34.0683 11.0573C38.7108 11.0573 43.1632 12.8423 46.446 16.0195C49.7287 19.1968 51.573 23.506 51.573 27.9993C51.573 32.4926 49.7287 36.8019 46.446 39.9791C43.1632 43.1564 38.7108 44.9413 34.0683 44.9413V44.942ZM6.84135 33.3486V22.6514H4.28213C3.60343 22.6521 2.95273 22.9133 2.47281 23.3778C1.99289 23.8423 1.72295 24.4721 1.72222 25.129V30.871C1.72295 31.5279 1.99289 32.1577 2.47281 32.6222C2.95273 33.0867 3.60343 33.3479 4.28213 33.3486H6.84135ZM13.6304 36.149V19.849H9.33926C9.13371 19.8492 8.93663 19.9283 8.79122 20.0689C8.6458 20.2095 8.56394 20.4002 8.56358 20.5991V35.4009C8.56376 35.5999 8.64554 35.7908 8.79097 35.9315C8.9364 36.0723 9.1336 36.1515 9.33926 36.1516L13.6304 36.149ZM34.0683 43.2752C38.2541 43.2752 42.2684 41.6658 45.2282 38.8012C48.188 35.9365 49.8508 32.0512 49.8508 28C49.8508 23.9488 48.188 20.0635 45.2282 17.1988C42.2684 14.3342 38.2541 12.7248 34.0683 12.7248C27.8256 12.7248 26.0696 14.5317 24.0367 16.6233C22.3069 18.4029 20.3574 20.4091 15.5675 21.2905V27.1666H28.4931C28.7022 25.7622 29.4267 24.4776 30.5341 23.5479C31.6414 22.6181 33.0577 22.1053 34.5237 22.1033C34.752 22.1033 34.9711 22.1911 35.1326 22.3474C35.2941 22.5037 35.3848 22.7157 35.3848 22.9367C35.3848 23.1578 35.2941 23.3698 35.1326 23.5261C34.9711 23.6824 34.752 23.7702 34.5237 23.7702C33.9497 23.7702 33.3815 23.8796 32.8512 24.0921C32.321 24.3047 31.8392 24.6163 31.4334 25.0091C31.0276 25.4018 30.7057 25.8681 30.486 26.3813C30.2664 26.8945 30.1534 27.4445 30.1534 28C30.1534 28.5555 30.2664 29.1055 30.486 29.6187C30.7057 30.1319 31.0276 30.5982 31.4334 30.9909C31.8392 31.3837 32.321 31.6953 32.8512 31.9079C33.3815 32.1204 33.9497 32.2298 34.5237 32.2298C34.752 32.2298 34.9711 32.3176 35.1326 32.4739C35.2941 32.6302 35.3848 32.8422 35.3848 33.0633C35.3848 33.2843 35.2941 33.4963 35.1326 33.6526C34.9711 33.8089 34.752 33.8967 34.5237 33.8967C33.0577 33.8947 31.6414 33.3819 30.5341 32.4521C29.4267 31.5224 28.7022 30.2378 28.4931 28.8334H15.5689V34.7101C20.3587 35.5909 22.3083 37.5971 24.0381 39.3774C26.0696 41.4683 27.8256 43.2752 34.0683 43.2752Z" fill="black"/>
</svg>
