<svg width="52" height="52" viewBox="0 0 52 52" fill="none" xmlns="http://www.w3.org/2000/svg">
<g clip-path="url(#clip0_54_12)">
<path d="M30.94 12.2197L30.3881 12.8823C30.3487 12.9293 26.3447 17.6126 17.6129 17.6126H12.5379C12.3265 15.7306 10.7439 14.2578 8.8065 14.2578C6.869 14.2578 5.2864 15.7306 5.075 17.6126H-3.8147e-06V34.3868H5.075C5.2864 36.2689 6.869 37.7417 8.8065 37.7417C10.7439 37.7417 12.3265 36.2689 12.5379 34.3868H17.6129C26.2936 34.3868 30.3496 39.0719 30.3881 39.1171L30.94 39.7797L46.5576 25.9997L30.94 12.2197ZM29.3548 25.9997C29.3548 27.387 28.2259 28.5159 26.8387 28.5159C25.4515 28.5159 24.3226 27.387 24.3226 25.9997C24.3226 24.6125 25.4515 23.4836 26.8387 23.4836C28.2259 23.4836 29.3548 24.6125 29.3548 25.9997ZM1.67739 19.29H5.0323V32.7094H1.67739V19.29ZM8.8065 36.0642C7.6507 36.0642 6.7097 35.1232 6.7097 33.9675V18.032C6.7097 16.8762 7.6507 15.9352 8.8065 15.9352C9.9622 15.9352 10.9032 16.8762 10.9032 18.032V33.9675C10.9032 35.1232 9.9622 36.0642 8.8065 36.0642ZM17.6129 32.7094H12.5806V19.29H17.6129C25.2527 19.29 29.5771 15.9872 31.0759 14.5765L43.0719 25.161H30.9476C30.5576 23.2496 28.8642 21.8062 26.8387 21.8062C24.5264 21.8062 22.6452 23.6874 22.6452 25.9997C22.6452 28.312 24.5264 30.1933 26.8387 30.1933C28.8634 30.1933 30.5576 28.7499 30.9476 26.8384H43.0719L31.0759 37.423C29.5771 36.0122 25.2527 32.7094 17.6129 32.7094Z" fill="black"/>
<path d="M46.9677 52H52V46.9677H50.3226V5.03226H52V0L46.9677 0V5.03226H48.6452V17.1415C45.1922 8.346 36.7632 2.03723 26.8387 1.69839V0L21.8065 0V5.03226H26.8387V3.37581C38.9379 3.81948 48.6452 13.7951 48.6452 26C48.6452 38.2049 38.9379 48.1805 26.8387 48.6242V46.9677H21.8065V52H26.8387V50.3016C36.7632 49.9628 45.1922 43.654 48.6452 34.8585V46.9677H46.9677V52ZM48.6452 3.35484V1.67742L50.3226 1.67742V3.35484H48.6452ZM23.4839 3.35484V1.67742L25.1613 1.67742V3.35484H23.4839ZM23.4839 50.3226V48.6452H25.1613V50.3226H23.4839ZM50.3226 48.6452V50.3226H48.6452V48.6452H50.3226Z" fill="black"/>
</g>
<defs>
<clipPath id="clip0_54_12">
<rect width="52" height="52" fill="white" transform="matrix(0 1 -1 0 52 0)"/>
</clipPath>
</defs>
</svg>
