<svg width="59" height="60" viewBox="0 0 59 60" fill="none" xmlns="http://www.w3.org/2000/svg">
<path d="M0.323242 28.4987L0.323242 31.564H3.38854V28.4987H0.323242Z" fill="black"/>
<path d="M55.2578 28.4987V31.564H58.3231V28.4987H55.2578Z" fill="black"/>
<path d="M46.4824 48.6332V51.6985H49.5477V48.6332H46.4824Z" fill="black"/>
<path d="M46.4824 9.20424V12.2695H49.5477V9.20424H46.4824Z" fill="black"/>
<path d="M8.73828 48.6332V51.6985H11.8036V48.6332H8.73828Z" fill="black"/>
<path d="M8.73828 9.20424V12.2695H11.8036V9.20424H8.73828Z" fill="black"/>
<path d="M27.5498 56.3258V59.3911H30.6151V56.3258H27.5498Z" fill="black"/>
<path d="M27.5498 0.608534V3.67383H30.6151V0.608534H27.5498Z" fill="black"/>
<path d="M13.9069 53.8019C17.3929 56.0859 21.2395 57.5284 25.3867 58.0693L25.7473 58.1294V56.3263L25.4468 56.2662C21.4199 55.6651 17.5732 54.1625 14.2074 51.8786L13.7266 51.518V53.6216L13.9069 53.8019Z" fill="black"/>
<path d="M32.7195 56.3839L32.4189 56.444V58.187L32.7796 58.1269C37.0469 57.586 40.9537 56.2036 44.5599 53.9196L44.6801 53.7994V51.6958L44.1993 52.0564C40.7734 54.3404 36.8065 55.843 32.7195 56.3839Z" fill="black"/>
<path d="M25.5068 3.735L25.8073 3.67489V1.87178L25.4467 1.93189C21.2996 2.53292 17.4529 3.97541 13.9669 6.19926L13.8467 6.31946V8.4231L14.3275 8.06247C17.6332 5.83863 21.4799 4.33604 25.5068 3.735Z" fill="black"/>
<path d="M32.4189 3.6141L32.7195 3.6742C36.8065 4.21514 40.8335 5.71774 44.1993 8.00168L44.6801 8.3623V6.25867L44.5599 6.13846C41.0138 3.85452 37.0469 2.41203 32.7796 1.9312L32.4189 1.87109V3.6141Z" fill="black"/>
<path d="M7.11532 15.5155L7.17542 15.4554V12.4502L6.57438 13.2316C3.6894 17.0181 1.82618 21.586 1.22514 26.3342L1.16504 26.6948H2.96815L3.02826 26.3943C3.56919 22.4876 4.89148 18.8212 7.11532 15.5155Z" fill="black"/>
<path d="M6.57438 46.8893L7.17542 47.6707V44.6655L7.11532 44.6054C4.89148 41.2395 3.56919 37.5732 3.02826 33.6064L2.96815 33.3058H1.16504L1.22514 33.6665C1.82618 38.4748 3.6894 43.0427 6.57438 46.8893Z" fill="black"/>
<path d="M51.4117 15.2137C53.6355 18.5795 55.1381 22.4262 55.679 26.4531L55.7391 26.7537H57.5423L57.4822 26.393C56.821 21.5246 54.9578 16.8966 51.9526 12.9899L51.3516 12.2085L51.4117 15.2137Z" fill="black"/>
<path d="M51.4117 44.8456L51.3516 44.9658V47.9109L51.9526 47.1295C54.9578 43.2228 56.821 38.5347 57.4822 33.6663L57.5423 33.3057H55.7391L55.679 33.6062C55.1381 37.6331 53.6355 41.5399 51.4117 44.8456Z" fill="black"/>
<path d="M35.0037 37.9932L28.9933 45.446L23.584 37.9331L26.0482 36.1901L29.1135 40.4574L32.6597 36.13L35.0037 37.9932Z" fill="black"/>
<path d="M35.0037 22.0667L32.6597 23.9299L29.1135 19.6025L26.0482 23.8698L23.584 22.1268L28.9933 14.6138L35.0037 22.0667Z" fill="black"/>
<path d="M20.6323 25.2925L19.6514 28.1331L38.0579 34.4893L39.0387 31.6487L20.6323 25.2925Z" fill="black"/>
</svg>
