<svg width="58" height="45" viewBox="0 0 58 45" fill="none" xmlns="http://www.w3.org/2000/svg">
<path d="M45.0832 44.4285C45.1935 44.3824 45.2938 44.3151 45.3783 44.2305L57.1465 32.4623C57.2311 32.3778 57.2984 32.2775 57.3445 32.1672C57.3912 32.055 57.4155 31.9348 57.416 31.8133V3.25C57.416 2.52065 57.1263 1.82118 56.6106 1.30546C56.0948 0.789731 55.3954 0.5 54.666 0.5L3.33268 0.5C2.60334 0.5 1.90387 0.789731 1.38814 1.30546C0.872417 1.82118 0.582685 2.52065 0.582685 3.25V41.75C0.582685 42.4793 0.872417 43.1788 1.38814 43.6945C1.90387 44.2103 2.60334 44.5 3.33268 44.5H44.7293C44.8508 44.4995 44.971 44.4752 45.0832 44.4285ZM54.2865 32.73L45.646 41.3705V32.73H54.2865ZM2.41602 41.75V3.25C2.41602 3.00688 2.51259 2.77373 2.6845 2.60182C2.85641 2.42991 3.08957 2.33333 3.33268 2.33333L54.666 2.33333C54.9091 2.33333 55.1423 2.42991 55.3142 2.60182C55.4861 2.77373 55.5827 3.00688 55.5827 3.25V30.8967H44.7293C44.4862 30.8967 44.2531 30.9932 44.0812 31.1652C43.9093 31.3371 43.8127 31.5702 43.8127 31.8133V42.6667H3.33268C3.08957 42.6667 2.85641 42.5701 2.6845 42.3982C2.51259 42.2263 2.41602 41.9931 2.41602 41.75Z" fill="black"/>
<path d="M44.0322 16.1852V6.25773C44.0322 6.01462 43.9357 5.78146 43.7637 5.60955C43.5918 5.43764 43.3587 5.34106 43.1156 5.34106L33.1881 5.34106C32.9449 5.34106 32.7118 5.43764 32.5399 5.60955C32.368 5.78146 32.2714 6.01462 32.2714 6.25773V16.1852C32.2714 16.4283 32.368 16.6615 32.5399 16.8334C32.7118 17.0053 32.9449 17.1019 33.1881 17.1019H43.1156C43.2359 17.1019 43.3551 17.0782 43.4664 17.0321C43.5776 16.9861 43.6786 16.9185 43.7637 16.8334C43.8489 16.7483 43.9164 16.6472 43.9624 16.536C44.0085 16.4248 44.0322 16.3056 44.0322 16.1852ZM34.0974 7.1744L42.1989 7.1744V15.2686H41.2639C41.4191 15.2228 41.559 15.136 41.6691 15.0174C41.7487 14.927 41.8097 14.8218 41.8487 14.7079C41.8876 14.5939 41.9037 14.4733 41.8961 14.3531C41.8884 14.2329 41.8571 14.1154 41.804 14.0073C41.7509 13.8992 41.677 13.8026 41.5866 13.7231L38.7009 11.1912L40.4866 9.48256C40.5784 9.40044 40.6528 9.30064 40.7052 9.18913C40.7576 9.07762 40.787 8.95668 40.7916 8.83356C40.7962 8.71043 40.776 8.58763 40.7321 8.47251C40.6881 8.35738 40.6215 8.25229 40.536 8.16352C40.4506 8.07475 40.3481 8.00411 40.2348 7.95583C40.1214 7.90755 39.9995 7.88262 39.8762 7.88253C39.753 7.88245 39.6311 7.9072 39.5176 7.95531C39.4042 8.00343 39.3016 8.07391 39.2161 8.16257L36.7117 10.5679C36.6228 10.6536 36.5521 10.7564 36.5039 10.8702C36.4557 10.9839 36.431 11.1062 36.4312 11.2297V11.2426C36.434 11.3696 36.4631 11.4947 36.5167 11.6099C36.5704 11.7251 36.6474 11.8279 36.7429 11.9117L40.3766 15.1017C40.4619 15.1749 40.5601 15.2314 40.6662 15.2686H34.0974V7.1744Z" fill="black"/>
<path d="M24.2842 16.1852V6.25773C24.2842 6.01462 24.1876 5.78146 24.0157 5.60955C23.8438 5.43764 23.6106 5.34106 23.3675 5.34106L13.44 5.34106C13.1969 5.34106 12.9637 5.43764 12.7918 5.60955C12.6199 5.78146 12.5233 6.01462 12.5233 6.25773V16.1852C12.5233 16.4283 12.6199 16.6615 12.7918 16.8334C12.9637 17.0053 13.1969 17.1019 13.44 17.1019H23.3675C23.4879 17.1019 23.6071 17.0782 23.7183 17.0321C23.8295 16.9861 23.9306 16.9185 24.0157 16.8334C24.1008 16.7483 24.1683 16.6472 24.2144 16.536C24.2605 16.4248 24.2842 16.3056 24.2842 16.1852ZM14.3567 7.1744L22.4508 7.1744V15.2686H21.2775C21.4327 15.2228 21.5727 15.136 21.6827 15.0174C21.7623 14.927 21.8233 14.8218 21.8623 14.7079C21.9012 14.5939 21.9173 14.4733 21.9097 14.3531C21.902 14.2329 21.8707 14.1154 21.8176 14.0073C21.7645 13.8992 21.6906 13.8026 21.6002 13.7231L18.7163 11.1912L20.5002 9.48256C20.5943 9.40116 20.6708 9.30146 20.7251 9.18952C20.7794 9.07759 20.8104 8.95577 20.8161 8.83149C20.8218 8.7072 20.8022 8.58305 20.7584 8.4666C20.7146 8.35015 20.6475 8.24384 20.5613 8.15414C20.4751 8.06443 20.3715 7.99322 20.2569 7.94484C20.1423 7.89645 20.019 7.8719 19.8946 7.87269C19.7702 7.87348 19.6472 7.89959 19.5332 7.94942C19.4192 7.99926 19.3166 8.07178 19.2315 8.16257L16.7272 10.5679C16.6379 10.6535 16.5669 10.7562 16.5184 10.87C16.4698 10.9837 16.4448 11.1061 16.4448 11.2297V11.2481C16.4473 11.3754 16.4763 11.5009 16.53 11.6164C16.5836 11.7319 16.6608 11.835 16.7565 11.9191L20.3902 15.1091C20.4757 15.182 20.5739 15.2385 20.6798 15.2759H14.3567V7.1744Z" fill="black"/>
<path d="M40.7676 39.3662V21.141C40.7676 20.8979 40.671 20.6648 40.4991 20.4929C40.3272 20.3209 40.094 20.2244 39.8509 20.2244C39.6078 20.2244 39.3746 20.3209 39.2027 20.4929C39.0308 20.6648 38.9342 20.8979 38.9342 21.141V39.3662C38.9342 39.6093 39.0308 39.8425 39.2027 40.0144C39.3746 40.1863 39.6078 40.2829 39.8509 40.2829C40.094 40.2829 40.3272 40.1863 40.4991 40.0144C40.671 39.8425 40.7676 39.6093 40.7676 39.3662Z" fill="black"/>
<path d="M34.0739 21.141V34.1577C34.0739 34.4008 34.1705 34.634 34.3424 34.8059C34.5143 34.9778 34.7474 35.0744 34.9906 35.0744C35.2337 35.0744 35.4668 34.9778 35.6387 34.8059C35.8107 34.634 35.9072 34.4008 35.9072 34.1577V21.141C35.9072 20.8979 35.8107 20.6648 35.6387 20.4929C35.4668 20.3209 35.2337 20.2244 34.9906 20.2244C34.7474 20.2244 34.5143 20.3209 34.3424 20.4929C34.1705 20.6648 34.0739 20.8979 34.0739 21.141Z" fill="black"/>
<path d="M20.0947 39.3662V21.141C20.0947 20.8979 19.9982 20.6648 19.8262 20.4929C19.6543 20.3209 19.4212 20.2244 19.1781 20.2244C18.9349 20.2244 18.7018 20.3209 18.5299 20.4929C18.358 20.6648 18.2614 20.8979 18.2614 21.141V39.3662C18.2614 39.6093 18.358 39.8425 18.5299 40.0144C18.7018 40.1863 18.9349 40.2829 19.1781 40.2829C19.4212 40.2829 19.6543 40.1863 19.8262 40.0144C19.9982 39.8425 20.0947 39.6093 20.0947 39.3662Z" fill="black"/>
<path d="M15.2324 34.1543V21.1376C15.2324 20.8945 15.1358 20.6613 14.9639 20.4894C14.792 20.3175 14.5589 20.2209 14.3158 20.2209C14.0726 20.2209 13.8395 20.3175 13.6676 20.4894C13.4957 20.6613 13.3991 20.8945 13.3991 21.1376V34.1543C13.3991 34.3974 13.4957 34.6306 13.6676 34.8025C13.8395 34.9744 14.0726 35.0709 14.3158 35.0709C14.5589 35.0709 14.792 34.9744 14.9639 34.8025C15.1358 34.6306 15.2324 34.3974 15.2324 34.1543Z" fill="black"/>
</svg>
