<svg width="49" height="60" viewBox="0 0 49 60" fill="none" xmlns="http://www.w3.org/2000/svg">
<path d="M20.5216 52.8744C25.5894 53.9012 30.8553 53.1886 35.4678 50.8519C40.0803 48.5151 43.7698 44.6908 45.9396 39.9974C48.1094 35.304 48.6327 30.016 47.4248 24.9884C46.2169 19.9607 43.3484 15.4875 39.2833 12.2921C36.6719 10.25 33.646 8.80264 30.4172 8.0512C27.1884 7.29976 23.8344 7.26235 20.5896 7.94158V7.73765C20.5896 5.93479 19.8734 4.20576 18.5986 2.93094C17.3238 1.65613 15.5948 0.939941 13.7919 0.939941L6.85825 0.939941C5.05539 0.939941 3.32637 1.65613 2.05155 2.93094C0.776734 4.20576 0.0605488 5.93479 0.0605488 7.73765V13.3118C0.0605488 13.6723 0.203785 14.0181 0.458748 14.2731C0.713712 14.5281 1.05952 14.6713 1.42009 14.6713L19.2301 14.6713C19.5907 14.6713 19.9365 14.5281 20.1914 14.2731C20.4464 14.0181 20.5896 13.6723 20.5896 13.3118V10.6607C23.5642 9.95717 26.6594 9.93595 29.6434 10.5986C32.6273 11.2612 35.4226 12.5906 37.8199 14.487C40.2171 16.3834 42.1541 18.7977 43.4857 21.549C44.8173 24.3004 45.5091 27.3174 45.5091 30.374C45.5091 33.4307 44.8173 36.4477 43.4857 39.199C42.1541 41.9504 40.2171 44.3647 37.8199 46.2611C35.4226 48.1575 32.6273 49.4868 29.6434 50.1495C26.6594 50.8121 23.5642 50.7909 20.5896 50.0874V46.6885C20.5896 46.3279 20.4464 45.9821 20.1914 45.7272C19.9365 45.4722 19.5907 45.329 19.2301 45.329H1.42009C1.05952 45.329 0.713712 45.4722 0.458748 45.7272C0.203785 45.9821 0.0605488 46.3279 0.0605488 46.6885V52.2626C0.0605488 54.0655 0.776734 55.7945 2.05155 57.0693C3.32637 58.3442 5.05539 59.0604 6.85825 59.0604H13.7919C15.4819 59.0503 17.1075 58.4111 18.3518 57.2674C19.596 56.1237 20.3696 54.5576 20.5216 52.8744ZM17.8026 11.8843L2.77963 11.8843V7.66967C2.77963 6.58795 3.20935 5.55054 3.97424 4.78565C4.73913 4.02076 5.77654 3.59105 6.85825 3.59105L13.7919 3.59105C14.8736 3.59105 15.9111 4.02076 16.6759 4.78565C17.4408 5.55054 17.8705 6.58795 17.8705 7.66967L17.8026 11.8843ZM6.85825 56.3413C5.77654 56.3413 4.73913 55.9116 3.97424 55.1467C3.20935 54.3818 2.77963 53.3444 2.77963 52.2626V48.0481H17.8705V52.2626C17.8705 53.3444 17.4408 54.3818 16.6759 55.1467C15.9111 55.9116 14.8736 56.3413 13.7919 56.3413H6.85825Z" fill="black"/>
</svg>
