<svg width="56" height="80" viewBox="0 0 56 80" fill="none" xmlns="http://www.w3.org/2000/svg">
    <path fill-rule="evenodd" clip-rule="evenodd" d="M0.512241 58.7019C0.717659 60.836 1.23234 62.8993 2.0125 64.8408C2.82445 66.8877 3.93867 68.8055 5.34834 70.5739C5.64899 70.9588 6.05326 71.4197 6.49322 71.8885C6.67687 72.086 6.864 72.2804 7.05452 72.4714C7.79399 73.2203 8.55306 73.9165 9.04574 74.2738C9.31366 74.4749 9.83612 74.8636 10.2112 75.1317C10.764 75.5434 11.5079 75.992 12.3439 76.4259C14.0055 77.3247 15.7925 78.0202 17.673 78.4749C19.0604 78.8095 20.4987 79.0031 21.9508 79.0587C24.6393 79.1744 27.3584 78.8089 29.9356 77.9624C30.419 77.8055 30.8957 77.6322 31.3641 77.4427C32.5028 76.9735 32.9047 76.7858 34.3247 75.9949C35.0213 75.6062 36.5217 74.5873 36.8298 74.279C36.9236 74.1852 37.1513 73.9975 37.3389 73.8769C37.6839 73.6445 38.3575 73.001 39.057 72.2691C39.6259 71.6846 40.1976 71.0603 40.5674 70.6007L41.3578 69.6489V69.5409C42.6977 67.6362 43.6528 65.7222 44.3853 63.4742C45.0953 61.3159 45.3633 59.6671 45.5106 56.6911C45.5776 55.2165 45.6982 53.6882 45.7652 53.3129L45.7821 53.2264L45.9795 52.4363C46.234 51.3505 46.8905 49.5675 47.2924 48.8436C47.3414 48.7504 47.4065 48.6303 47.4767 48.501L47.4768 48.5008C47.5853 48.3008 47.7057 48.0788 47.7968 47.9005C48.0295 47.5085 48.2786 47.1274 48.5438 46.7577C48.8579 46.3331 49.2261 45.8737 49.5996 45.4397C50.9346 43.9432 52.5716 42.6734 54.4862 41.6635C55.7178 41.0205 55.9996 40.6988 56 40.0027L56 39.996C56 39.2989 55.7187 38.9772 54.4862 38.3338C52.5714 37.3238 50.9342 36.0538 49.5992 34.5571C49.226 34.1235 48.8581 33.6645 48.5443 33.2403C48.2789 32.8703 48.0296 32.4889 47.7967 32.0966C47.7056 31.9183 47.5852 31.6963 47.4767 31.4963C47.4065 31.367 47.3414 31.2469 47.2924 31.1537C46.8905 30.4298 46.234 28.6469 45.9795 27.561L45.7822 26.7711L45.7652 26.6844C45.6982 26.3091 45.5776 24.7808 45.5106 23.3062C45.3633 20.3302 45.0954 18.6814 44.3853 16.5231C43.6528 14.275 42.6977 12.3611 41.3578 10.4564V10.3484L40.5674 9.39661C40.1977 8.93723 39.6264 8.31325 39.0578 7.72906C38.358 6.99673 37.684 6.35291 37.3389 6.12045C37.1513 5.99979 36.9236 5.81212 36.8298 5.71828C36.5217 5.40996 35.0213 4.39114 34.3247 4.00239C32.9047 3.21146 32.5028 3.02379 31.3641 2.5546C30.8955 2.36498 30.4186 2.19165 29.9348 2.03471C27.358 1.18835 24.6392 0.822968 21.951 0.938545C20.4989 0.994148 19.0605 1.18781 17.673 1.52238C15.7927 1.97711 14.0058 2.67245 12.3443 3.57119C11.5082 4.00513 10.7641 4.45387 10.2112 4.86557C9.83611 5.13368 9.31366 5.52245 9.04573 5.72353C8.55272 6.08102 7.79296 6.77791 7.05302 7.5274C6.86361 7.71736 6.67754 7.9106 6.49491 8.107C6.05429 8.57646 5.64937 9.03801 5.34833 9.42342C3.93797 11.1926 2.82334 13.1115 2.0113 15.1595C1.23181 17.1001 0.71756 19.1624 0.512248 21.2954C0.506283 21.3606 0.50052 21.4696 0.494961 21.6191C0.417711 22.7546 0.382077 31.3649 0.384923 40.0104C0.38215 48.6467 0.417778 57.2413 0.494935 58.3777C0.5005 58.5275 0.506268 58.6366 0.512241 58.7019ZM4.93304 21.4347C5.01353 20.7556 5.12722 20.0905 5.27377 19.4405C5.72582 17.5426 6.52357 15.5955 7.53795 13.9103C8.25953 12.7593 9.12041 11.6855 10.1174 10.6969C12.7032 8.10941 15.7232 6.47089 19.2935 5.70748C20.1196 5.5439 20.9664 5.43822 21.8378 5.38889C23.277 5.33354 25.0096 5.40339 26.0323 5.58947C27.51 5.85899 29.0787 6.36598 30.5363 7.02443C30.7252 7.1124 30.9161 7.20426 31.1096 7.30013C32.2129 7.84303 33.2371 8.47927 34.1773 9.20365C35.1221 9.9676 36.4111 11.2509 37.1807 12.1693C37.5567 12.6451 37.9092 13.1425 38.2375 13.6608C39.2348 15.281 40.1256 17.3257 40.554 19.062C40.8281 20.1796 40.9655 20.8589 41.0289 23.7871L41.0631 39.3258L41.0645 39.9968L41.063 40.6715L41.0289 56.211C40.9655 59.1385 40.8281 59.8178 40.554 60.9353C40.1256 62.6713 39.2351 64.7156 38.2381 66.3357C37.9095 66.8543 37.5568 67.3521 37.1804 67.8283C36.4109 68.7465 35.1223 70.0294 34.1777 70.7933C33.2374 71.5178 32.2131 72.1542 31.1095 72.6972C30.9159 72.7931 30.7247 72.8851 30.5356 72.9732C29.0782 73.6315 27.5098 74.1384 26.0323 74.4078C25.0095 74.5939 23.2769 74.6638 21.8377 74.6084C20.9664 74.5591 20.1198 74.4534 19.2939 74.2899C15.7234 73.5265 12.7033 71.888 10.1174 69.3004C9.12024 68.3116 8.25924 67.2376 7.53759 66.0864C6.52358 64.4016 5.72609 62.4553 5.27404 60.558C5.12736 59.9076 5.01358 59.2422 4.93305 58.5626C4.91962 58.4489 4.90723 58.1419 4.89588 57.6712C4.7711 52.347 4.77128 27.4205 4.89639 22.3045C4.90761 21.846 4.91982 21.5466 4.93304 21.4347ZM23.1671 49.5837C26.8677 49.5837 29.8677 52.585 29.8677 56.2872C29.8677 59.9894 26.8677 62.9906 23.1671 62.9906C19.4664 62.9906 16.4664 59.9894 16.4664 56.2872C16.4664 52.585 19.4664 49.5837 23.1671 49.5837ZM23.1671 17.0055C26.8677 17.0055 29.8677 20.0067 29.8677 23.7089C29.8677 27.4111 26.8677 30.4124 23.1671 30.4124C19.4664 30.4124 16.4664 27.4111 16.4664 23.7089C16.4664 20.0067 19.4664 17.0055 23.1671 17.0055Z" fill="white"/>
</svg>