<svg width="43" height="40" viewBox="0 0 43 40" fill="none" xmlns="http://www.w3.org/2000/svg">
<g clipPath="url(#clip0_113_18)">
<path d="M41.7536 0H1.24638C0.558022 0 0 0.552096 0 1.23314V38.7669C0 39.4479 0.558022 40 1.24638 40H41.7536C42.442 40 43 39.4479 43 38.7669V1.23314C43 0.552096 42.442 0 41.7536 0Z" fill="black"/>
<path fillRule="evenodd" clipRule="evenodd" d="M28.5012 30.2738C29.3392 30.1949 30.1492 29.9973 30.9113 29.6975C31.7112 29.3869 32.4609 28.9609 33.1522 28.4224C33.3011 28.3088 33.4791 28.1564 33.6604 27.9904C33.7424 27.9161 33.8229 27.8403 33.902 27.7631C34.193 27.4819 34.4628 27.1942 34.6017 27.007C34.6805 26.9045 34.8328 26.7044 34.9379 26.5609C35.0986 26.3499 35.2738 26.0662 35.4433 25.7473C35.7962 25.1104 36.0692 24.4253 36.2476 23.7044C36.3798 23.1688 36.4558 22.6135 36.4769 22.053C36.5201 21.0339 36.3785 20.0036 36.0522 19.0263C35.9893 18.8357 35.9196 18.6477 35.8432 18.4633C35.6594 18.0273 35.5859 17.8735 35.2761 17.3299C35.1238 17.0632 34.7246 16.4888 34.6038 16.3709C34.5671 16.335 34.4936 16.2478 34.4462 16.176C34.3549 16.0433 34.101 15.7839 33.8128 15.5149C33.5849 15.2982 33.3418 15.0809 33.1627 14.9401L32.7898 14.6375H32.7476C32.0014 14.1245 31.2516 13.7589 30.3709 13.4785C29.5253 13.2067 28.8794 13.1041 27.7135 13.0477C27.1357 13.0221 26.537 12.976 26.39 12.9503C26.3785 12.9481 26.3671 12.9459 26.3558 12.9437L26.0465 12.8683C25.6211 12.7708 24.9226 12.5195 24.639 12.3656C24.6025 12.3469 24.5554 12.3219 24.5048 12.2951C24.4266 12.2537 24.3398 12.2077 24.27 12.1728C24.1155 12.0831 23.9654 11.9872 23.8197 11.885C23.6545 11.7656 23.4761 11.6258 23.3074 11.484C22.7204 10.9727 22.2222 10.3455 21.8262 9.61176C21.5741 9.14 21.4481 9.03223 21.175 9.03223H21.1728C20.8997 9.03223 20.7737 9.13992 20.5216 9.61176C20.1255 10.3455 19.6273 10.9728 19.0403 11.4841C18.8716 11.6258 18.6933 11.7655 18.5283 11.8849C18.3825 11.9871 18.2323 12.0831 18.0777 12.1728C18.0079 12.2077 17.9211 12.2537 17.8429 12.2951L17.8429 12.2951C17.7922 12.3219 17.7452 12.3469 17.7087 12.3656C17.4252 12.5195 16.7266 12.7708 16.3012 12.8683L15.9921 12.9437C15.9806 12.9459 15.9692 12.9481 15.9577 12.9503C15.8107 12.976 15.212 13.0221 14.6343 13.0477C13.4684 13.1041 12.8224 13.2067 11.9769 13.4785C11.0962 13.7589 10.3463 14.1245 9.60018 14.6375H9.55793L9.18505 14.9401C9.00601 15.0808 8.76312 15.2981 8.53526 15.5147C8.24687 15.7837 7.99294 16.0433 7.90148 16.176C7.85421 16.2478 7.78068 16.335 7.74392 16.3709C7.62313 16.4888 7.22399 17.0632 7.07169 17.3299C6.76183 17.8735 6.68831 18.0273 6.50449 18.4633C6.42804 18.6478 6.35835 18.8358 6.29546 19.0266C5.96921 20.0038 5.82766 21.0341 5.87085 22.053C5.89192 22.6136 5.96796 23.1688 6.1001 23.7044C6.27853 24.4253 6.55151 25.1104 6.9044 25.7473C7.07392 26.0661 7.24913 26.3499 7.40993 26.5609C7.51496 26.7044 7.66727 26.9045 7.74604 27.007C7.88506 27.1944 8.15512 27.4823 8.44623 27.7636C8.52498 27.8405 8.60517 27.9159 8.68671 27.9899C8.86824 28.156 9.04645 28.3086 9.19555 28.4224C9.88714 28.9612 10.6371 29.3872 11.4375 29.6978C12.1993 29.9974 13.009 30.195 13.8466 30.2738C13.8721 30.2761 13.9148 30.2783 13.9735 30.2804C14.4187 30.3099 17.791 30.3236 21.1774 30.3225C24.561 30.3236 27.9286 30.3099 28.3741 30.2804C28.4329 30.2783 28.4756 30.2761 28.5012 30.2738ZM13.9012 28.5814C13.6346 28.5505 13.3737 28.507 13.1186 28.4507C12.3761 28.2778 11.6145 27.9728 10.9549 27.5852C10.5034 27.3088 10.0822 26.9789 9.6945 26.5967C8.67968 25.6058 8.03753 24.4484 7.73883 23.0798C7.67547 22.7661 7.63442 22.4445 7.61508 22.1136C7.59313 21.562 7.62046 20.8967 7.69352 20.5043C7.79939 19.9371 7.99883 19.3349 8.25783 18.7756C8.29161 18.7048 8.3269 18.6332 8.36363 18.5607C8.576 18.1389 8.82486 17.7474 9.10811 17.3879C9.40754 17.0258 9.912 16.5306 10.2723 16.2357C10.4577 16.0926 10.6515 15.9584 10.8533 15.8334C11.4884 15.451 12.2906 15.1094 12.9716 14.9452C13.4094 14.8403 13.6756 14.7877 14.8228 14.7634L20.9102 14.7504L21.1733 14.7498L21.4375 14.7504L27.5252 14.7634C28.6722 14.7877 28.9383 14.8403 29.3762 14.9452C30.0571 15.1094 30.8592 15.4509 31.4942 15.8332C31.6962 15.9583 31.89 16.0926 32.0755 16.2358C32.4358 16.5307 32.9402 17.0257 33.2396 17.3878C33.5229 17.7473 33.7717 18.1389 33.9841 18.5607C34.0209 18.6332 34.0562 18.7049 34.09 18.7756C34.349 19.335 34.5483 19.9372 34.6542 20.5043C34.7273 20.8967 34.7546 21.562 34.7327 22.1136C34.7133 22.4445 34.6723 22.766 34.6089 23.0798C34.3102 24.4484 33.6681 25.6058 32.6533 26.5967C32.2655 26.979 31.8442 27.3088 31.3926 27.5853C30.7333 27.9728 29.9719 28.2777 29.2295 28.4506C28.9743 28.5069 28.7132 28.5505 28.4465 28.5814C28.402 28.5865 28.2812 28.5913 28.0961 28.5957C26.0085 28.6434 16.2559 28.6433 14.2451 28.5955C14.0637 28.5912 13.9453 28.5865 13.9012 28.5814ZM12.1661 21.6013C12.1661 20.1846 13.3419 19.0361 14.7923 19.0361C16.2427 19.0361 17.4184 20.1846 17.4184 21.6013C17.4184 23.0179 16.2427 24.1663 14.7923 24.1663C13.3419 24.1663 12.1661 23.0179 12.1661 21.6013ZM24.9293 21.6012C24.9293 20.1846 26.1051 19.0361 27.5554 19.0361C29.0059 19.0361 30.1817 20.1846 30.1817 21.6012C30.1817 23.0179 29.0059 24.1663 27.5554 24.1663C26.1051 24.1663 24.9293 23.0179 24.9293 21.6012Z" fill="white"/>
</g>
<defs>
<clipPath id="clip0_113_18">
<rect width="43" height="40" fill="white"/>
</clipPath>
</defs>
</svg>
