<svg width="56" height="62" viewBox="0 0 56 62" fill="none" xmlns="http://www.w3.org/2000/svg">
<path d="M27.8513 6.17176V0.861111C27.8513 0.63273 27.9391 0.413703 28.0954 0.252214C28.2517 0.0907239 28.4637 0 28.6847 0C28.9058 0 29.1178 0.0907239 29.2741 0.252214C29.4304 0.413703 29.5182 0.63273 29.5182 0.861111V6.17176C29.5182 6.40014 29.4304 6.61916 29.2741 6.78065C29.1178 6.94214 28.9058 7.03287 28.6847 7.03287C28.4637 7.03287 28.2517 6.94214 28.0954 6.78065C27.9391 6.61916 27.8513 6.40014 27.8513 6.17176ZM47.347 8.80262L43.7132 12.5571C43.6356 12.637 43.574 12.7319 43.532 12.8364C43.4899 12.941 43.4682 13.053 43.468 13.1662C43.4679 13.2794 43.4893 13.3915 43.5311 13.4962C43.5729 13.6008 43.6342 13.6959 43.7115 13.7761C43.7889 13.8562 43.8808 13.9198 43.9819 13.9633C44.0831 14.0068 44.1915 14.0292 44.3011 14.0294C44.4106 14.0295 44.5192 14.0074 44.6204 13.9642C44.7217 13.9211 44.8138 13.8577 44.8913 13.7778L48.5258 10.0226C48.6776 9.86019 48.7615 9.64265 48.7595 9.41687C48.7576 9.19109 48.6699 8.97514 48.5153 8.81552C48.3607 8.65591 48.1517 8.56541 47.9331 8.56351C47.7146 8.56162 47.5041 8.64847 47.347 8.80538V8.80262ZM55.1666 29.4307H50.0266C49.8056 29.4307 49.5936 29.5214 49.4373 29.6829C49.281 29.8444 49.1932 30.0634 49.1932 30.2918C49.1932 30.5202 49.281 30.7392 49.4373 30.9007C49.5936 31.0622 49.8056 31.1529 50.0266 31.1529H55.1666C55.3876 31.1529 55.5996 31.0622 55.7559 30.9007C55.9122 30.7392 56 30.5202 56 30.2918C56 30.0634 55.9122 29.8444 55.7559 29.6829C55.5996 29.5214 55.3876 29.4307 55.1666 29.4307ZM5.97338 29.4307H0.833433C0.612392 29.4307 0.400406 29.5214 0.244107 29.6829C0.0878078 29.8444 0 30.0634 0 30.2918C0 30.5202 0.0878078 30.7392 0.244107 30.9007C0.400406 31.0622 0.612392 31.1529 0.833433 31.1529H5.97338C6.19442 31.1529 6.4064 31.0622 6.5627 30.9007C6.719 30.7392 6.80681 30.5202 6.80681 30.2918C6.80681 30.0634 6.719 29.8444 6.5627 29.6829C6.4064 29.5214 6.19442 29.4307 5.97338 29.4307ZM11.6981 14.0272C11.8629 14.0272 12.0241 13.9767 12.1612 13.8821C12.2983 13.7875 12.4051 13.653 12.4682 13.4956C12.5313 13.3382 12.5478 13.1651 12.5156 12.998C12.4835 12.8309 12.4041 12.6775 12.2875 12.5571L8.65303 8.80262C8.57617 8.72036 8.48422 8.65473 8.38255 8.60957C8.28088 8.56441 8.17153 8.54062 8.06087 8.5396C7.9502 8.53857 7.84045 8.56033 7.73801 8.60359C7.63558 8.64686 7.5425 8.71077 7.46423 8.7916C7.38595 8.87243 7.32404 8.96856 7.28211 9.07437C7.24017 9.18019 7.21906 9.29357 7.21999 9.40791C7.22092 9.52225 7.24388 9.63525 7.28753 9.74032C7.33118 9.84539 7.39464 9.94043 7.47422 10.0199L11.1087 13.7778C11.1862 13.8574 11.2782 13.9204 11.3793 13.9631C11.4804 14.0059 11.5888 14.0277 11.6981 14.0272ZM44.942 27.9317C44.942 34.9191 42.6931 37.1042 40.5182 39.2178C38.7886 40.8993 37.1498 42.4941 36.3677 46.6474H36.9844C37.0939 46.6473 37.2023 46.6695 37.3034 46.7128C37.4046 46.756 37.4965 46.8195 37.5739 46.8994C37.6513 46.9794 37.7127 47.0744 37.7546 47.1789C37.7964 47.2834 37.8179 47.3954 37.8178 47.5085V52.6607C37.8171 53.3229 37.5623 53.9577 37.1092 54.426C36.6561 54.8942 36.0417 55.1577 35.4009 55.1586H35.0162V57.7179C35.0149 58.8533 34.5778 59.9418 33.8007 60.7446C33.0236 61.5474 31.9699 61.9989 30.871 62H25.129C24.0301 61.9989 22.9766 61.5474 22.1996 60.7446C21.4225 59.9418 20.9856 58.8532 20.9845 57.7179V55.1586H20.5991C19.9581 55.1579 19.3436 54.8945 18.8904 54.4262C18.4371 53.9579 18.1822 53.323 18.1815 52.6607V47.5085C18.1814 47.3954 18.2029 47.2834 18.2448 47.1789C18.2866 47.0744 18.348 46.9794 18.4254 46.8994C18.5028 46.8195 18.5947 46.756 18.6959 46.7128C18.797 46.6695 18.9055 46.6473 19.0149 46.6474H19.6317C18.8496 42.4941 17.2107 40.8993 15.4805 39.2178C13.3062 37.1042 11.0573 34.9191 11.0573 27.9317C11.0573 23.2892 12.8423 18.8368 16.0195 15.554C19.1968 12.2713 23.506 10.427 27.9993 10.427C32.4926 10.427 36.8019 12.2713 39.9791 15.554C43.1564 18.8368 44.9413 23.2892 44.9413 27.9317H44.942ZM33.3486 55.1586H22.6514V57.7179C22.6521 58.3966 22.9133 59.0473 23.3778 59.5272C23.8423 60.0071 24.4721 60.2771 25.129 60.2778H30.871C31.5279 60.2771 32.1577 60.0071 32.6222 59.5272C33.0867 59.0473 33.3479 58.3966 33.3486 57.7179V55.1586ZM36.149 48.3696H19.849V52.6607C19.8492 52.8663 19.9283 53.0634 20.0689 53.2088C20.2095 53.3542 20.4002 53.4361 20.5991 53.4364H35.4009C35.5999 53.4362 35.7908 53.3545 35.9315 53.209C36.0723 53.0636 36.1515 52.8664 36.1516 52.6607L36.149 48.3696ZM43.2752 27.9317C43.2752 23.7459 41.6658 19.7316 38.8012 16.7718C35.9365 13.812 32.0512 12.1492 28 12.1492C23.9488 12.1492 20.0635 13.812 17.1988 16.7718C14.3342 19.7316 12.7248 23.7459 12.7248 27.9317C12.7248 34.1744 14.5317 35.9304 16.6233 37.9633C18.4029 39.6931 20.4091 41.6426 21.2905 46.4325H27.1666V33.5069C25.7622 33.2978 24.4776 32.5733 23.5479 31.4659C22.6181 30.3586 22.1053 28.9423 22.1033 27.4763C22.1033 27.248 22.1911 27.0289 22.3474 26.8674C22.5037 26.7059 22.7157 26.6152 22.9367 26.6152C23.1578 26.6152 23.3698 26.7059 23.5261 26.8674C23.6824 27.0289 23.7702 27.248 23.7702 27.4763C23.7702 28.0503 23.8796 28.6185 24.0921 29.1488C24.3047 29.679 24.6163 30.1608 25.0091 30.5666C25.4018 30.9724 25.8681 31.2943 26.3813 31.514C26.8945 31.7336 27.4445 31.8466 28 31.8466C28.5555 31.8466 29.1055 31.7336 29.6187 31.514C30.1319 31.2943 30.5982 30.9724 30.9909 30.5666C31.3837 30.1608 31.6953 29.679 31.9079 29.1488C32.1204 28.6185 32.2298 28.0503 32.2298 27.4763C32.2298 27.248 32.3176 27.0289 32.4739 26.8674C32.6302 26.7059 32.8422 26.6152 33.0633 26.6152C33.2843 26.6152 33.4963 26.7059 33.6526 26.8674C33.8089 27.0289 33.8967 27.248 33.8967 27.4763C33.8947 28.9423 33.3819 30.3586 32.4521 31.4659C31.5224 32.5733 30.2378 33.2978 28.8334 33.5069V46.4311H34.7101C35.5909 41.6413 37.5971 39.6917 39.3774 37.9619C41.4683 35.9304 43.2752 34.1744 43.2752 27.9317Z" fill="black"/>
</svg>
