<svg width="52" height="52" viewBox="0 0 52 52" fill="none" xmlns="http://www.w3.org/2000/svg">
<path d="M12.2197 21.06L12.8823 21.6119C12.9293 21.6513 17.6126 25.6553 17.6126 34.3871V39.4621C15.7306 39.6735 14.2578 41.2561 14.2578 43.1935C14.2578 45.131 15.7306 46.7136 17.6126 46.925V52H34.3868V46.925C36.2689 46.7136 37.7417 45.131 37.7417 43.1935C37.7417 41.2561 36.2689 39.6735 34.3868 39.4621V34.3871C34.3868 25.7064 39.0719 21.6504 39.1171 21.6119L39.7797 21.06L25.9997 5.44238L12.2197 21.06ZM25.9997 22.6452C27.387 22.6452 28.5159 23.7741 28.5159 25.1613C28.5159 26.5485 27.387 27.6774 25.9997 27.6774C24.6125 27.6774 23.4836 26.5485 23.4836 25.1613C23.4836 23.7741 24.6125 22.6452 25.9997 22.6452ZM19.29 50.3226V46.9677H32.7094V50.3226H19.29ZM36.0642 43.1935C36.0642 44.3493 35.1232 45.2903 33.9675 45.2903H18.032C16.8762 45.2903 15.9352 44.3493 15.9352 43.1935C15.9352 42.0378 16.8762 41.0968 18.032 41.0968H33.9675C35.1232 41.0968 36.0642 42.0378 36.0642 43.1935ZM32.7094 34.3871V39.4194H19.29V34.3871C19.29 26.7473 15.9872 22.4229 14.5765 20.9241L25.161 8.92806V21.0524C23.2496 21.4424 21.8062 23.1358 21.8062 25.1613C21.8062 27.4736 23.6874 29.3548 25.9997 29.3548C28.312 29.3548 30.1933 27.4736 30.1933 25.1613C30.1933 23.1366 28.7499 21.4424 26.8384 21.0524V8.92806L37.423 20.9241C36.0122 22.4229 32.7094 26.7473 32.7094 34.3871Z" fill="black"/>
<path d="M52 5.03226V0H46.9677V1.67742H5.03226V0H0V5.03226H5.03226V3.35484H17.1415C8.346 6.80781 2.03723 15.2368 1.69839 25.1613H0V30.1935H5.03226V25.1613H3.37581C3.81948 13.0621 13.7951 3.35484 26 3.35484C38.2049 3.35484 48.1805 13.0621 48.6242 25.1613H46.9677V30.1935H52V25.1613H50.3016C49.9628 15.2368 43.654 6.80781 34.8585 3.35484H46.9677V5.03226H52ZM3.35484 3.35484H1.67742V1.67742H3.35484V3.35484ZM3.35484 28.5161H1.67742V26.8387H3.35484V28.5161ZM50.3226 28.5161H48.6452V26.8387H50.3226V28.5161ZM48.6452 1.67742H50.3226V3.35484H48.6452V1.67742Z" fill="black"/>
</svg>
