<svg width="60" height="58" viewBox="0 0 60 58" fill="none" xmlns="http://www.w3.org/2000/svg">
<path d="M31.8241 -0.000244141H28.7588V3.06505H31.8241V-0.000244141Z" fill="black"/>
<path d="M31.8241 54.9346H28.7588V57.9999H31.8241V54.9346Z" fill="black"/>
<path d="M11.6893 46.1594H8.62402V49.2247H11.6893V46.1594Z" fill="black"/>
<path d="M51.119 46.1594H48.0537V49.2247H51.119V46.1594Z" fill="black"/>
<path d="M11.6893 8.41455H8.62402V11.4798H11.6893V8.41455Z" fill="black"/>
<path d="M51.119 8.41455H48.0537V11.4798H51.119V8.41455Z" fill="black"/>
<path d="M3.99694 27.2266H0.931641V30.2919H3.99694V27.2266Z" fill="black"/>
<path d="M59.7147 27.2266H56.6494V30.2919H59.7147V27.2266Z" fill="black"/>
<path d="M6.52083 13.5834C4.23689 17.0694 2.7944 20.9161 2.25346 25.0632L2.19336 25.4238H3.99647L4.05658 25.1233C4.65762 21.0964 6.16021 17.2497 8.44416 13.8839L8.80478 13.4031H6.70115L6.52083 13.5834Z" fill="black"/>
<path d="M3.93886 32.3957L3.87875 32.0952H2.13574L2.19585 32.4558C2.73678 36.7232 4.11917 40.63 6.40311 44.2362L6.52332 44.3564H8.62696L8.26633 43.8756C5.98239 40.4496 4.47979 36.4828 3.93886 32.3957Z" fill="black"/>
<path d="M56.5875 25.1833L56.6476 25.4839H58.4507L58.3906 25.1232C57.7896 20.9761 56.3471 17.1294 54.1233 13.6434L54.003 13.5232H51.8994L52.26 14.004C54.4839 17.3097 55.9865 21.1564 56.5875 25.1833Z" fill="black"/>
<path d="M56.7091 32.0952L56.649 32.3957C56.1081 36.4828 54.6055 40.5098 52.3216 43.8756L51.9609 44.3564H54.0646L54.1848 44.2362C56.4687 40.6901 57.9112 36.7232 58.392 32.4558L58.4522 32.0952H56.7091Z" fill="black"/>
<path d="M44.8072 6.79183L44.8673 6.85194H47.8725L47.0912 6.2509C43.3046 3.36591 38.7368 1.50269 33.9886 0.901657L33.6279 0.841553V2.64467L33.9284 2.70477C37.8352 3.24571 41.5015 4.56799 44.8072 6.79183Z" fill="black"/>
<path d="M13.4337 6.2509L12.6523 6.85194H15.6575L15.7176 6.79183C19.0835 4.56799 22.7498 3.24571 26.7166 2.70477L27.0172 2.64467V0.841553L26.6565 0.901657C21.8482 1.50269 17.2803 3.36591 13.4337 6.2509Z" fill="black"/>
<path d="M45.1093 51.0882C41.7435 53.312 37.8968 54.8146 33.8699 55.3555L33.5693 55.4157V57.2188L33.93 57.1587C38.7984 56.4975 43.4264 54.6343 47.3331 51.6291L48.1145 51.0281L45.1093 51.0882Z" fill="black"/>
<path d="M15.4774 51.0882L15.3572 51.0281H12.4121L13.1935 51.6291C17.1002 54.6343 21.7883 56.4975 26.6567 57.1587L27.0173 57.2188V55.4157L26.7168 55.3555C22.6899 54.8146 18.7831 53.312 15.4774 51.0882Z" fill="black"/>
<path d="M22.3298 34.68L14.877 28.6696L22.3899 23.2603L24.1329 25.7245L19.8656 28.7898L24.193 32.3359L22.3298 34.68Z" fill="black"/>
<path d="M38.2558 34.68L36.3926 32.3359L40.7201 28.7898L36.4527 25.7245L38.1957 23.2603L45.7087 28.6696L38.2558 34.68Z" fill="black"/>
<path d="M35.03 20.3093L32.1895 19.3284L25.8333 37.7349L28.6738 38.7158L35.03 20.3093Z" fill="black"/>
</svg>
