<svg width="44" height="57" viewBox="0 0 44 57" fill="none" xmlns="http://www.w3.org/2000/svg">
<path d="M43.9285 12.4161C43.8824 12.3057 43.8151 12.2054 43.7305 12.1209L31.9623 0.352752C31.8778 0.268127 31.7775 0.200863 31.6672 0.154752C31.555 0.10807 31.4348 0.0837808 31.3133 0.083252H2.75C2.02065 0.083252 1.32118 0.372983 0.805456 0.888708C0.289731 1.40443 0 2.10391 0 2.83325V54.1666C0 54.8959 0.289731 55.5954 0.805456 56.1111C1.32118 56.6269 2.02065 56.9166 2.75 56.9166H41.25C41.9793 56.9166 42.6788 56.6269 43.1945 56.1111C43.7103 55.5954 44 54.8959 44 54.1666V12.7699C43.9995 12.6484 43.9752 12.5282 43.9285 12.4161ZM32.23 3.21275L40.8705 11.8533H32.23V3.21275ZM41.25 55.0832H2.75C2.50688 55.0832 2.27373 54.9867 2.10182 54.8148C1.92991 54.6429 1.83333 54.4097 1.83333 54.1666V2.83325C1.83333 2.59014 1.92991 2.35698 2.10182 2.18507C2.27373 2.01316 2.50688 1.91659 2.75 1.91659H30.3967V12.7699C30.3967 13.013 30.4932 13.2462 30.6652 13.4181C30.8371 13.59 31.0702 13.6866 31.3133 13.6866H42.1667V54.1666C42.1667 54.4097 42.0701 54.6429 41.8982 54.8148C41.7263 54.9867 41.4931 55.0832 41.25 55.0832Z" fill="black"/>
<path d="M15.685 13.4668H5.75749C5.51437 13.4668 5.28121 13.5634 5.10931 13.7353C4.9374 13.9072 4.84082 14.1403 4.84082 14.3835V24.311C4.84082 24.5541 4.9374 24.7872 5.10931 24.9591C5.28121 25.1311 5.51437 25.2276 5.75749 25.2276H15.685C15.9281 25.2276 16.1613 25.1311 16.3332 24.9591C16.5051 24.7872 16.6017 24.5541 16.6017 24.311V14.3835C16.6017 14.2631 16.5779 14.1439 16.5319 14.0327C16.4858 13.9215 16.4183 13.8204 16.3332 13.7353C16.248 13.6502 16.147 13.5826 16.0358 13.5366C15.9246 13.4905 15.8054 13.4668 15.685 13.4668ZM6.67415 23.4016V15.3001H14.7683V16.2351C14.7225 16.08 14.6358 15.94 14.5172 15.83C14.4268 15.7503 14.3216 15.6893 14.2076 15.6504C14.0936 15.6114 13.9731 15.5953 13.8529 15.603C13.7327 15.6106 13.6152 15.6419 13.5071 15.695C13.3989 15.7481 13.3024 15.822 13.2228 15.9125L10.691 18.7981L8.98232 17.0125C8.9002 16.9206 8.8004 16.8463 8.68888 16.7938C8.57737 16.7414 8.45644 16.712 8.33331 16.7074C8.21018 16.7028 8.08739 16.723 7.97226 16.767C7.85714 16.8109 7.75205 16.8775 7.66328 16.963C7.5745 17.0484 7.50387 17.1509 7.45559 17.2643C7.40731 17.3776 7.38238 17.4996 7.38229 17.6228C7.3822 17.746 7.40695 17.868 7.45507 17.9814C7.50318 18.0948 7.57367 18.1974 7.66232 18.283L10.0677 20.7873C10.1534 20.8762 10.2562 20.9469 10.3699 20.9951C10.4837 21.0433 10.606 21.068 10.7295 21.0678H10.7423C10.8694 21.0651 10.9945 21.036 11.1097 20.9823C11.2249 20.9286 11.3276 20.8516 11.4115 20.7561L14.6015 17.1225C14.6746 17.0371 14.7312 16.9389 14.7683 16.8328V23.4016H6.67415Z" fill="black"/>
<path d="M15.685 33.2153H5.75749C5.51437 33.2153 5.28121 33.3119 5.10931 33.4838C4.9374 33.6557 4.84082 33.8889 4.84082 34.132V44.0595C4.84082 44.3026 4.9374 44.5358 5.10931 44.7077C5.28121 44.8796 5.51437 44.9762 5.75749 44.9762H15.685C15.9281 44.9762 16.1613 44.8796 16.3332 44.7077C16.5051 44.5358 16.6017 44.3026 16.6017 44.0595V34.132C16.6017 34.0116 16.5779 33.8924 16.5319 33.7812C16.4858 33.67 16.4183 33.5689 16.3332 33.4838C16.248 33.3987 16.147 33.3312 16.0358 33.2851C15.9246 33.239 15.8054 33.2153 15.685 33.2153ZM6.67415 43.1428V35.0487H14.7683V36.222C14.7225 36.0668 14.6358 35.9269 14.5172 35.8168C14.4268 35.7372 14.3216 35.6762 14.2076 35.6372C14.0936 35.5983 13.9731 35.5822 13.8529 35.5898C13.7327 35.5975 13.6152 35.6288 13.5071 35.6819C13.3989 35.735 13.3024 35.8089 13.2228 35.8993L10.691 38.7832L8.98232 36.9993C8.90092 36.9052 8.80121 36.8287 8.68928 36.7744C8.57734 36.7201 8.45553 36.6891 8.33124 36.6834C8.20696 36.6777 8.08281 36.6973 7.96636 36.7411C7.84991 36.7849 7.74359 36.852 7.65389 36.9382C7.56419 37.0244 7.49298 37.128 7.44459 37.2426C7.3962 37.3572 7.37166 37.4805 7.37245 37.6049C7.37324 37.7293 7.39934 37.8523 7.44918 37.9663C7.49901 38.0803 7.57153 38.1829 7.66232 38.268L10.0677 40.7723C10.1532 40.8616 10.256 40.9326 10.3697 40.9812C10.4835 41.0297 10.6058 41.0547 10.7295 41.0547H10.7478C10.8752 41.0522 11.0006 41.0232 11.1162 40.9695C11.2317 40.9159 11.3348 40.8387 11.4188 40.743L14.6088 37.1093C14.6817 37.0238 14.7383 36.9256 14.7757 36.8197V43.1428H6.67415Z" fill="black"/>
<path d="M38.8664 16.7319H20.6413C20.3982 16.7319 20.165 16.8285 19.9931 17.0004C19.8212 17.1723 19.7246 17.4055 19.7246 17.6486C19.7246 17.8917 19.8212 18.1249 19.9931 18.2968C20.165 18.4687 20.3982 18.5653 20.6413 18.5653H38.8664C39.1096 18.5653 39.3427 18.4687 39.5146 18.2968C39.6865 18.1249 39.7831 17.8917 39.7831 17.6486C39.7831 17.4055 39.6865 17.1723 39.5146 17.0004C39.3427 16.8285 39.1096 16.7319 38.8664 16.7319Z" fill="black"/>
<path d="M20.6413 23.4251H33.6579C33.9011 23.4251 34.1342 23.3286 34.3061 23.1566C34.478 22.9847 34.5746 22.7516 34.5746 22.5085C34.5746 22.2653 34.478 22.0322 34.3061 21.8603C34.1342 21.6884 33.9011 21.5918 33.6579 21.5918H20.6413C20.3982 21.5918 20.165 21.6884 19.9931 21.8603C19.8212 22.0322 19.7246 22.2653 19.7246 22.5085C19.7246 22.7516 19.8212 22.9847 19.9931 23.1566C20.165 23.3286 20.3982 23.4251 20.6413 23.4251Z" fill="black"/>
<path d="M38.8664 37.4043H20.6413C20.3982 37.4043 20.165 37.5009 19.9931 37.6728C19.8212 37.8447 19.7246 38.0778 19.7246 38.321C19.7246 38.5641 19.8212 38.7972 19.9931 38.9691C20.165 39.1411 20.3982 39.2376 20.6413 39.2376H38.8664C39.1096 39.2376 39.3427 39.1411 39.5146 38.9691C39.6865 38.7972 39.7831 38.5641 39.7831 38.321C39.7831 38.0778 39.6865 37.8447 39.5146 37.6728C39.3427 37.5009 39.1096 37.4043 38.8664 37.4043Z" fill="black"/>
<path d="M33.654 42.2666H20.6374C20.3943 42.2666 20.1611 42.3632 19.9892 42.5351C19.8173 42.707 19.7207 42.9402 19.7207 43.1833C19.7207 43.4264 19.8173 43.6595 19.9892 43.8314C20.1611 44.0034 20.3943 44.0999 20.6374 44.0999H33.654C33.8972 44.0999 34.1303 44.0034 34.3022 43.8314C34.4741 43.6595 34.5707 43.4264 34.5707 43.1833C34.5707 42.9402 34.4741 42.707 34.3022 42.5351C34.1303 42.3632 33.8972 42.2666 33.654 42.2666Z" fill="black"/>
</svg>
