<svg width="59" height="48" viewBox="0 0 59 48" fill="none" xmlns="http://www.w3.org/2000/svg">
<path d="M51.9345 27.5389C52.9613 22.4712 52.2487 17.2053 49.9119 12.5927C47.5752 7.98021 43.7509 4.29071 39.0575 2.12091C34.3641 -0.0489011 29.076 -0.572162 24.0484 0.635743C19.0208 1.84365 14.5476 4.7121 11.3522 8.77722C9.31004 11.3887 7.86269 14.4145 7.11126 17.6433C6.35982 20.8722 6.32241 24.2261 7.00164 27.4709H6.79771C4.99484 27.4709 3.26582 28.1871 1.991 29.4619C0.716185 30.7367 0 32.4658 0 34.2686V41.2023C0 43.0052 0.716185 44.7342 1.991 46.009C3.26582 47.2838 4.99484 48 6.79771 48H12.3718C12.7324 48 13.0782 47.8568 13.3332 47.6018C13.5881 47.3468 13.7314 47.001 13.7314 46.6405V28.8305C13.7314 28.4699 13.5881 28.1241 13.3332 27.8691C13.0782 27.6142 12.7324 27.4709 12.3718 27.4709H9.72072C9.01723 24.4963 8.99601 21.4011 9.65865 18.4172C10.3213 15.4332 11.6506 12.6379 13.547 10.2407C15.4434 7.84344 17.8577 5.90646 20.6091 4.57484C23.3604 3.24322 26.3774 2.55149 29.4341 2.55149C32.4907 2.55149 35.5077 3.24322 38.2591 4.57484C41.0104 5.90646 43.4247 7.84344 45.3211 10.2407C47.2175 12.6379 48.5469 15.4332 49.2095 18.4172C49.8722 21.4011 49.8509 24.4963 49.1474 27.4709H45.7486C45.388 27.4709 45.0422 27.6142 44.7872 27.8691C44.5323 28.1241 44.389 28.4699 44.389 28.8305V46.6405C44.389 47.001 44.5323 47.3468 44.7872 47.6018C45.0422 47.8568 45.388 48 45.7486 48H51.3227C53.1256 48 54.8546 47.2838 56.1294 46.009C57.4042 44.7342 58.1204 43.0052 58.1204 41.2023V34.2686C58.1104 32.5787 57.4712 30.953 56.3275 29.7088C55.1838 28.4646 53.6176 27.691 51.9345 27.5389ZM10.9443 30.258V45.2809H6.72973C5.64801 45.2809 4.6106 44.8512 3.84571 44.0863C3.08082 43.3214 2.65111 42.284 2.65111 41.2023V34.2686C2.65111 33.1869 3.08082 32.1495 3.84571 31.3846C4.6106 30.6197 5.64801 30.19 6.72973 30.19L10.9443 30.258ZM55.4013 41.2023C55.4013 42.284 54.9716 43.3214 54.2067 44.0863C53.4418 44.8512 52.4044 45.2809 51.3227 45.2809H47.1081V30.19H51.3227C52.4044 30.19 53.4418 30.6197 54.2067 31.3846C54.9716 32.1495 55.4013 33.1869 55.4013 34.2686V41.2023Z" fill="black"/>
</svg>
