<svg width="68" height="49" viewBox="0 0 68 49" fill="none" xmlns="http://www.w3.org/2000/svg">
    <path fill-rule="evenodd" clip-rule="evenodd" d="M50.2714 48.2739C52.1225 48.0957 53.9123 47.6501 55.5969 46.9748C57.3835 46.2679 59.0572 45.2965 60.6001 44.0665C60.9411 43.8002 61.3505 43.4404 61.766 43.0496C61.923 42.9032 62.0777 42.7543 62.2299 42.6029C62.8894 41.953 63.5048 41.283 63.819 40.8498C63.9939 40.6167 64.3321 40.1622 64.5654 39.8358C64.925 39.3529 65.3171 38.7023 65.6961 37.9712C66.4757 36.5283 67.0789 34.9767 67.4737 33.3442C67.7615 32.1507 67.9295 30.914 67.98 29.6652C68.0871 27.2948 67.7642 24.8961 67.0114 22.6254C66.8793 22.2221 66.734 21.8242 66.5757 21.433C66.1675 20.4424 66.0043 20.0927 65.3162 18.8573C64.9779 18.2513 64.0916 16.946 63.8233 16.6779C63.7417 16.5963 63.5784 16.3982 63.4735 16.235C63.2725 15.9366 62.7181 15.3557 62.0859 14.751C61.5743 14.2525 61.0262 13.7503 60.6234 13.4262L59.7954 12.7386L59.7012 12.7386C58.0442 11.5729 56.379 10.742 54.4233 10.1047C52.5456 9.48695 51.1111 9.25386 48.522 9.12566C47.2391 9.06738 45.9095 8.96249 45.583 8.90421L45.5087 8.88965L44.8206 8.71773C43.8759 8.49629 42.3248 7.92521 41.695 7.57557C41.6139 7.53292 41.5094 7.47622 41.3968 7.41519L41.3966 7.41504C41.2221 7.32037 41.0284 7.2153 40.873 7.13602C40.5348 6.93511 40.2058 6.7202 39.8866 6.49153C39.5136 6.21591 39.1093 5.89189 38.7279 5.56338C37.4284 4.40288 36.3255 2.98037 35.4482 1.31699C34.8888 0.24557 34.6089 0.000380574 34.0034 1.06015e-05L33.9976 2.97258e-06C33.3912 3.0256e-06 33.1113 0.244754 32.5515 1.31699C31.674 2.98059 30.571 4.40327 29.2712 5.56385C28.8902 5.892 28.4864 6.21565 28.1138 6.49103C27.7942 6.71992 27.465 6.93504 27.1265 7.13612C26.9712 7.21537 26.7776 7.32039 26.6031 7.41501L26.6028 7.41521C26.4903 7.47624 26.3858 7.53293 26.3047 7.57558C25.6749 7.92522 24.1238 8.4963 23.1791 8.71774L22.4912 8.88959L22.4167 8.90421C22.0901 8.96248 20.7606 9.06738 19.4777 9.12565C16.8886 9.25385 15.4541 9.48695 13.5764 10.1046C11.6206 10.742 9.95546 11.5729 8.2984 12.7386L8.20427 12.7386L7.37622 13.4263C6.9737 13.7501 6.42592 14.252 5.91455 14.7502C5.28204 15.3552 4.72725 15.9365 4.52619 16.235C4.42122 16.3982 4.25794 16.5963 4.1763 16.6779C3.90806 16.946 3.0217 18.2513 2.68349 18.8573C1.9954 20.0927 1.83212 20.4424 1.42392 21.433C1.26542 21.8247 1.11999 22.2232 0.987722 22.6271C0.235227 24.8973 -0.0874576 27.2956 0.0196746 29.6655C0.0702042 30.9142 0.23815 32.1508 0.5259 33.3442C0.920684 34.9766 1.52392 36.5281 2.30344 37.9709C2.68243 38.7021 3.07458 39.3529 3.43426 39.8359C3.6675 40.1622 4.00573 40.6167 4.18066 40.8498C4.49506 41.2834 5.11118 41.9541 5.7713 42.6044C5.92247 42.7547 6.07601 42.9026 6.23186 43.0479C6.64799 43.4394 7.05811 43.7998 7.39955 44.0665C8.9433 45.2971 10.618 46.269 12.4057 46.976C14.0895 47.6506 15.8783 48.0958 17.7283 48.2739C17.7849 48.279 17.8796 48.2841 18.0094 48.2889C18.9962 48.3561 26.4888 48.3871 34.0116 48.3846C41.5252 48.387 49.002 48.356 49.9897 48.2889C50.1199 48.2841 50.2147 48.2791 50.2714 48.2739ZM17.8493 44.4278C17.2598 44.3579 16.6825 44.2593 16.1182 44.1323C14.4639 43.7387 12.7665 43.0431 11.2981 42.1584C10.2986 41.5313 9.36615 40.7834 8.5075 39.9174C6.25947 37.6709 4.83481 35.0477 4.16946 31.9472C4.02499 31.2209 3.93201 30.4762 3.88911 29.7096C3.84175 28.4597 3.90263 26.9587 4.06404 26.0716C4.29762 24.791 4.73623 23.4317 5.30589 22.1677C5.38447 21.9987 5.46664 21.8277 5.5525 21.6545C6.02584 20.6924 6.58075 19.7997 7.21266 18.9802C7.87689 18.1599 8.98813 17.0438 9.78514 16.3754C10.2022 16.0456 10.6384 15.7366 11.0929 15.4489C12.5014 14.5831 14.2769 13.81 15.785 13.4379C16.7574 13.1994 17.3483 13.0799 19.896 13.0247L33.4145 12.995L33.998 12.9938L34.5851 12.995L48.1044 13.0247C50.6514 13.0799 51.2424 13.1995 52.2147 13.4379C53.7224 13.8099 55.4976 14.5828 56.9059 15.4484C57.3609 15.7363 57.7974 16.0455 58.2148 16.3756C59.0117 17.044 60.1226 18.1597 60.7867 18.9799C61.4188 19.7994 61.9737 20.6923 62.4471 21.6545C62.5331 21.8279 62.6153 21.999 62.694 22.1682C63.2635 23.4321 63.7021 24.7911 63.9356 26.0716C64.097 26.9588 64.1579 28.4599 64.1105 29.7098C64.0676 30.4762 63.9747 31.2207 63.8303 31.9468C63.165 35.0475 61.7403 37.6708 59.4921 39.9174C58.6333 40.7836 57.7006 41.5316 56.7009 42.1588C55.233 43.0431 53.5363 43.7384 51.8826 44.132C51.318 44.2592 50.7403 44.3579 50.1504 44.4278C50.0519 44.4394 49.7867 44.4502 49.3803 44.46C44.7574 44.5688 23.0326 44.5686 18.598 44.4595C18.2036 44.4498 17.946 44.4392 17.8493 44.4278ZM42.3391 28.5644C42.3391 25.3449 44.9501 22.7349 48.171 22.7349C51.3919 22.7349 54.0029 25.3449 54.0029 28.5644C54.0029 31.7839 51.3919 34.3939 48.171 34.3939C44.9501 34.3939 42.3391 31.7839 42.3391 28.5644ZM13.9959 28.5644C13.9959 25.3449 16.6069 22.7349 19.8278 22.7349C23.0487 22.7349 25.6597 25.3449 25.6597 28.5644C25.6597 31.7839 23.0487 34.3939 19.8278 34.3939C16.6069 34.3939 13.9959 31.7839 13.9959 28.5644Z" fill="white"/>
</svg>
