<svg width="32" height="32" viewBox="0 0 58 59" fill="none" xmlns="http://www.w3.org/2000/svg">
<path d="M44.375 1.3125V44.875L29 37.1875L13.625 44.875V1.3125M44.375 1.3125H49.5C51.5389 1.3125 53.4942 2.1224 54.9359 3.5641C56.3776 5.0058 57.1875 6.9611 57.1875 9V50C57.1875 52.0389 56.3776 53.9942 54.9359 55.4359C53.4942 56.8776 51.5389 57.6875 49.5 57.6875H8.5C6.4611 57.6875 4.5058 56.8776 3.0641 55.4359C1.6224 53.9942 0.8125 52.0389 0.8125 50V9C0.8125 6.9611 1.6224 5.0058 3.0641 3.5641C4.5058 2.1224 6.4611 1.3125 8.5 1.3125H13.625M44.375 1.3125H13.625" stroke="black" stroke-width="1.5" stroke-linecap="round" stroke-linejoin="round"/>
</svg>