<svg xmlns="http://www.w3.org/2000/svg" width="64" height="63" viewBox="0 0 64 63" fill="none">
  <path d="M32 11V52M21.75 42.3718L24.75 44.6234C28.75 47.6267 35.24 47.6267 39.25 44.6234C43.25 41.6202 43.25 36.7548 39.25 33.7516C37.25 32.2483 34.62 31.5 32 31.5C29.52 31.5 27.05 30.7483 25.16 29.2484C21.38 26.2452 21.38 21.3798 25.16 18.3766C28.94 15.3733 35.06 15.3733 38.84 18.3766L40.26 19.5041M62.75 31.5C62.75 35.5381 61.95 39.5368 60.41 43.2675C58.86 46.9983 56.6 50.3881 53.74 53.2435C50.89 56.0989 47.5 58.364 43.77 59.9093C40.04 61.4546 36.04 62.25 32 62.25C27.96 62.25 23.96 61.4546 20.23 59.9093C16.5 58.364 13.11 56.0989 10.26 53.2435C7.40001 50.3881 5.13997 46.9983 3.58997 43.2675C2.04997 39.5368 1.25 35.5381 1.25 31.5C1.25 23.3446 4.49001 15.5232 10.26 9.7565C16.02 3.9897 23.84 0.75 32 0.75C40.16 0.75 47.98 3.9897 53.74 9.7565C59.51 15.5232 62.75 23.3446 62.75 31.5Z" stroke="black" stroke-width="1.5" stroke-linecap="round" stroke-linejoin="round"/>
</svg>