<svg xmlns="http://www.w3.org/2000/svg" width="64" height="63" viewBox="0 0 64 63" fill="none">
  <path d="M34.5628 0.852603V2.7933C34.5628 3.9344 35.0678 5.0141 35.9458 5.7452L39.5948 8.7861C41.1048 10.0468 41.4228 12.2369 40.3328 13.8769L38.5908 16.4941C37.6418 17.9161 36.2458 18.9813 34.6238 19.5213L34.1348 19.6852C33.5838 19.8696 33.0828 20.1785 32.6698 20.588C32.2578 20.9976 31.9448 21.4967 31.7568 22.0466C31.5678 22.5966 31.5088 23.1825 31.5838 23.759C31.6588 24.3355 31.8658 24.8869 32.1878 25.3706C33.4488 27.2668 32.7648 29.8362 30.7288 30.8543L21.7498 35.3438L23.1948 38.9621C23.4868 39.697 23.5018 40.5126 23.2378 41.2578C22.9738 42.0029 22.4478 42.6269 21.7588 43.0141C21.0698 43.4013 20.2628 43.5254 19.4888 43.3633C18.7158 43.2012 18.0268 42.764 17.5508 42.1328L15.2308 39.0373C14.8378 38.5133 14.3168 38.0985 13.7188 37.8323C13.1198 37.5661 12.4638 37.4572 11.8108 37.5161C11.1588 37.575 10.5318 37.7996 9.99079 38.1687C9.44979 38.5378 9.01179 39.039 8.71879 39.6249L6.37479 44.3126L4.28379 44.8353M34.5628 0.852603C29.1608 0.399303 23.7358 1.3854 18.8358 3.7043C13.9368 6.0232 9.73679 9.5961 6.66279 14.0608C3.58979 18.5256 1.75079 23.7235 1.33279 29.1279C0.914786 34.5323 1.93279 39.9512 4.28379 44.8353M34.5628 0.852603C39.9188 1.2993 45.0638 3.1456 49.4868 6.2009C53.9088 9.2562 57.4518 13.4172 59.7648 18.2692C62.0778 23.1211 63.0778 28.4944 62.6668 33.8535C62.2548 39.2126 60.4458 44.3703 57.4198 48.8123L56.8148 47.0049C56.3048 45.4743 55.3248 44.1431 54.0158 43.2C52.7068 42.2569 51.1338 41.7496 49.5208 41.7501H47.3748L46.2678 40.6431C45.7118 40.0861 45.0308 39.6693 44.2828 39.4271C43.5338 39.1848 42.7378 39.1241 41.9608 39.25C41.1838 39.3758 40.4478 39.6845 39.8138 40.1507C39.1798 40.6169 38.6658 41.2272 38.3138 41.9312L38.1908 42.1806C37.8558 42.8524 37.3838 43.4472 36.8058 43.9271C36.2288 44.4071 35.5578 44.7617 34.8358 44.9686L31.4528 45.9321C29.5738 46.4685 28.3988 48.3306 28.7198 50.261L28.9688 51.7575C29.2428 53.377 30.6438 54.5626 32.2838 54.5626C35.1738 54.5626 37.7428 56.4144 38.6558 59.158L39.3898 61.3549M4.28379 44.8353C7.34679 51.2033 12.5088 56.3222 18.9028 59.3308C25.2968 62.3394 32.5308 63.0542 39.3898 61.3549M39.3898 61.3549C46.7358 59.5326 53.1528 55.0688 57.4168 48.8158M44.8128 21.2501C44.8128 24.3114 43.4698 27.0584 41.3408 28.9376" stroke="black" stroke-width="1.5" stroke-linecap="round" stroke-linejoin="round"/>
</svg>