<svg xmlns="http://www.w3.org/2000/svg" width="69" height="63" viewBox="0 0 69 63" fill="none">
  <path d="M1.6875 0.75H6.42249C8.16449 0.75 9.68554 1.9219 10.1365 3.6029L11.4455 8.5127M11.4455 8.5127C30.4785 7.9793 49.4925 10.0951 67.9435 14.7993C65.1275 23.1838 61.7825 31.3292 57.9525 39.1875H19.6245M11.4455 8.5127L19.6245 39.1875M19.6245 39.1875C16.9065 39.1875 14.2985 40.2674 12.3765 42.1897C10.4545 44.1119 9.37451 46.719 9.37451 49.4375H63.1875M14.4995 59.6875C14.4995 60.3671 14.2295 61.0189 13.7485 61.4995C13.2685 61.98 12.6165 62.25 11.9375 62.25C11.2575 62.25 10.6055 61.98 10.1255 61.4995C9.64449 61.0189 9.37451 60.3671 9.37451 59.6875C9.37451 59.0079 9.64449 58.3561 10.1255 57.8755C10.6055 57.395 11.2575 57.125 11.9375 57.125C12.6165 57.125 13.2685 57.395 13.7485 57.8755C14.2295 58.3561 14.4995 59.0079 14.4995 59.6875ZM58.0625 59.6875C58.0625 60.3671 57.7925 61.0189 57.3115 61.4995C56.8305 61.98 56.1795 62.25 55.4995 62.25C54.8195 62.25 54.1685 61.98 53.6875 61.4995C53.2065 61.0189 52.9375 60.3671 52.9375 59.6875C52.9375 59.0079 53.2065 58.3561 53.6875 57.8755C54.1685 57.395 54.8195 57.125 55.4995 57.125C56.1795 57.125 56.8305 57.395 57.3115 57.8755C57.7925 58.3561 58.0625 59.0079 58.0625 59.6875Z" stroke="black" stroke-width="1.5" stroke-linecap="round" stroke-linejoin="round"/>
</svg>