<svg xmlns="http://www.w3.org/2000/svg" width="64" height="63" viewBox="0 0 64 63" fill="none">
  <path d="M32 11V52M21.75 42.3718L24.753 44.6234C28.754 47.6267 35.242 47.6267 39.247 44.6234C43.251 41.6202 43.251 36.7548 39.247 33.7516C37.248 32.2483 34.624 31.5 32 31.5C29.523 31.5 27.046 30.7483 25.156 29.2484C21.378 26.2452 21.378 21.3798 25.156 18.3766C28.935 15.3733 35.065 15.3733 38.844 18.3766L40.262 19.5041M62.75 31.5C62.75 35.5381 61.955 39.5368 60.409 43.2675C58.864 46.9983 56.599 50.3881 53.744 53.2435C50.888 56.0989 47.498 58.364 43.768 59.9093C40.037 61.4546 36.038 62.25 32 62.25C27.962 62.25 23.963 61.4546 20.232 59.9093C16.502 58.364 13.112 56.0989 10.256 53.2435C7.40098 50.3881 5.136 46.9983 3.591 43.2675C2.045 39.5368 1.25 35.5381 1.25 31.5C1.25 23.3446 4.48998 15.5232 10.256 9.7565C16.023 3.9897 23.845 0.75 32 0.75C40.155 0.75 47.977 3.9897 53.744 9.7565C59.51 15.5232 62.75 23.3446 62.75 31.5Z" stroke="black" stroke-width="1.5" stroke-linecap="round" stroke-linejoin="round"/>
</svg>