<svg xmlns="http://www.w3.org/2000/svg" width="60" height="65" viewBox="0 0 60 65" fill="none">
  <path d="M34.2199 2.62705C34.7739 3.18435 35.2119 3.84555 35.5099 4.57275C35.8089 5.29985 35.9599 6.07865 35.9569 6.86445V25.2728L56.1709 33.9561C56.3929 34.0436 56.5919 34.1792 56.7539 34.3535C56.9159 34.5277 57.0369 34.736 57.1089 34.9632L58.8799 40.2428C58.9739 40.5352 58.9889 40.8479 58.9229 41.1482C58.8569 41.4485 58.7119 41.7256 58.5039 41.9518C58.2959 42.178 58.0309 42.3447 57.7369 42.4349C57.4429 42.5251 57.1299 42.5357 56.8309 42.4656L35.9909 37.2211L34.9839 55.1432L38.9779 58.13V64.1041C33.9939 62.7852 29.9819 61.6851 29.9819 61.6851C29.9819 61.6851 26.3159 62.693 21.0219 64.1041V58.13L25.0159 55.1432L24.0079 37.2211L3.16889 42.4656C2.86889 42.5357 2.55689 42.5251 2.26289 42.4349C1.96889 42.3447 1.70386 42.178 1.49586 41.9518C1.28786 41.7256 1.14291 41.4485 1.07691 41.1482C1.01091 40.8479 1.02488 40.5352 1.11988 40.2428L2.89088 34.9632C2.96188 34.736 3.08386 34.5277 3.24586 34.3535C3.40786 34.1792 3.60687 34.0436 3.82887 33.9561L24.0429 25.2728V6.86445C24.0399 6.07865 24.1919 5.29985 24.4899 4.57275C24.7869 3.84555 25.2259 3.18435 25.7799 2.62705C26.9039 1.51765 28.4199 0.895752 29.9999 0.895752C31.5789 0.895752 33.0949 1.51765 34.2199 2.62705Z" stroke="black" stroke-width="1.3" stroke-linecap="round" stroke-linejoin="round"/>
</svg>