<svg width="175" height="152" viewBox="0 0 175 152" fill="none" xmlns="http://www.w3.org/2000/svg">
<circle cx="63.2125" cy="96.1532" r="11.9742" transform="rotate(157.6 63.2125 96.1532)" fill="transparent" stroke="#878787" />
<!-- #ECECEC -->
<circle cx="119.262" cy="73.0521" r="11.9742" transform="rotate(157.6 119.262 73.0521)" fill="transparent" stroke="#878787" />
<mask id="path-3-inside-1_341_1216" fill="white">
<path fillRule="evenodd" clipRule="evenodd" d="M149.109 103.278C146.294 106.048 143.068 108.439 139.49 110.333C139.378 110.392 139.185 110.483 138.917 110.605C136.963 111.56 123.044 117.368 108.692 123.283C93.3387 129.621 77.6321 136.023 75.6765 136.668C75.4286 136.759 75.2459 136.823 75.1334 136.858C71.3839 137.997 67.5403 138.574 63.7152 138.627C59.5482 138.702 55.3882 138.146 51.2775 136.954C50.3541 136.696 49.2036 136.299 48.0198 135.845C47.6684 135.712 47.3187 135.574 46.9709 135.431C45.0975 134.671 43.2829 133.826 42.2889 133.213C41.7529 132.895 40.7134 132.271 39.986 131.816C38.8782 131.152 37.5683 130.181 36.219 129.04C33.5047 126.822 31.0499 124.247 28.9405 121.343C27.3906 119.205 26.0444 116.883 24.9228 114.441C22.8074 109.89 21.5004 104.943 21.125 99.8978C21.0507 98.9462 21.01 97.9945 21.0037 97.0458C21.0031 94.7532 21.0409 93.9284 21.3943 90.9234C21.5689 89.4488 22.2574 86.1439 22.5692 85.3949C22.6642 85.167 22.8255 84.6419 22.9 84.2335C23.0566 83.4674 23.6967 81.827 24.4701 80.0848C25.066 78.7078 25.7246 77.3048 26.2463 76.3544L27.3231 74.319L27.5079 74.2429C29.8345 70.5854 32.4501 67.5839 35.7984 64.7285C39.008 61.976 41.6547 60.3456 46.6703 57.9816C49.1598 56.8206 51.7035 55.5294 52.3018 55.148C52.3523 55.1147 52.4027 55.0813 52.453 55.0478L53.658 54.1584C55.3456 52.9503 57.9474 50.5561 58.9077 49.3511C59.0333 49.2006 59.1937 49.0033 59.3664 48.7908C59.631 48.4654 59.9245 48.1045 60.1654 47.8224C60.6858 47.1296 61.1745 46.4155 61.631 45.6808C62.1268 44.8566 62.6421 43.9218 63.1129 42.9944C64.7486 39.6279 65.7769 35.8999 66.1571 31.8767C66.3899 29.2991 66.7438 28.5868 67.9431 28.0924C68.0597 28.0444 68.1721 28.0034 68.2818 27.9702C69.3049 27.6563 70.092 28.0088 71.8861 29.5164C74.9694 32.0854 78.3011 33.9975 81.8072 35.2345C82.8511 35.5815 83.9398 35.9001 84.9206 36.1448C85.7226 36.3321 86.5322 36.4857 87.3485 36.6054C87.7221 36.6355 88.1959 36.6861 88.6222 36.7315C88.8944 36.7606 89.1473 36.7875 89.3424 36.8058C90.873 36.9842 94.4061 36.8497 96.4548 36.5178L97.9726 36.2946C98.0201 36.2852 98.0677 36.2757 98.1152 36.2661C98.8085 36.1152 101.523 35.239 104.108 34.3086C109.332 32.4519 112.359 31.7438 116.576 31.4354C120.963 31.1021 124.933 31.3887 129.16 32.344L129.347 32.2669L131.545 32.9523C132.618 33.2688 134.134 33.8245 135.567 34.4007C137.291 35.0758 138.838 35.7643 139.472 36.1869C139.813 36.4241 140.298 36.683 140.526 36.7779C141.275 37.0896 144.092 38.9496 145.255 39.8729C147.623 41.7561 148.231 42.3148 149.846 43.9419C150.474 44.5826 151.082 45.2468 151.668 45.9322C155.002 49.7996 157.593 54.2681 159.316 59.0307C160.245 61.5592 160.928 64.1608 161.335 66.7748C161.887 70.3384 161.958 73.9119 161.588 77.4135C161.435 79.1545 161.191 80.7478 160.876 81.9877C160.681 82.8234 160.383 83.9983 160.227 84.602C159.966 85.6862 159.323 87.4476 158.574 89.223C158.357 89.7472 158.129 90.267 157.891 90.7819C157.41 91.836 156.92 92.8222 156.484 93.5896C154.47 97.2189 152.002 100.457 149.109 103.278ZM68.6396 129.966C69.8369 129.759 71.0366 129.487 72.237 129.151C72.3696 129.114 72.6409 129.019 73.037 128.871C80.9959 125.89 133.823 104.099 136.114 102.822C137.246 102.19 138.329 101.509 139.36 100.781C142.274 98.67 145.027 95.9442 147.189 93.0334C148.667 90.9668 149.911 88.7134 150.91 86.2842C153.527 79.999 154.204 73.6395 152.985 66.9534C152.68 65.4127 152.26 63.8774 151.725 62.3396C150.799 59.825 149.452 56.8967 148.407 55.27C146.903 52.9308 144.932 50.6033 142.779 48.5694C142.482 48.2958 142.177 48.0212 141.862 47.7452C140.137 46.2239 138.307 44.9071 136.384 43.7992C134.407 42.7225 131.321 41.4294 129.206 40.7565C128.09 40.4368 126.952 40.1762 125.795 39.9753C122.314 39.4177 118.196 39.3386 114.926 39.8293C112.815 40.1492 111.55 40.3938 106.504 42.3455L79.702 53.3235C79.2429 53.5116 78.7902 53.6971 78.3436 53.88C78.0277 54.011 77.7086 54.1433 77.3865 54.2769L50.7194 65.3369C45.6903 67.537 44.618 68.2556 42.8847 69.5235C40.1888 71.5014 37.2883 74.5034 35.2062 77.3811C34.5625 78.2953 33.9697 79.2353 33.4285 80.1995C32.3905 82.179 31.0874 85.3302 30.443 87.5051C29.8663 89.632 29.4997 91.8405 29.3488 94.1187C29.3215 94.5142 29.2991 94.9027 29.2819 95.285C29.1816 98.2661 29.422 101.332 30.0077 104.072C30.4124 105.961 31.5182 108.985 32.6325 111.421C33.3408 112.898 34.1297 114.291 35.0049 115.606C38.8493 121.2 43.8064 125.229 50.0852 127.842C52.4781 128.851 54.9203 129.568 57.3963 129.995C61.0538 130.557 65.0176 130.548 68.6396 129.966Z" />
</mask>
<path fillRule="evenodd" clipRule="evenodd" d="M149.109 103.278C146.294 106.048 143.068 108.439 139.49 110.333C139.378 110.392 139.185 110.483 138.917 110.605C136.963 111.56 123.044 117.368 108.692 123.283C93.3387 129.621 77.6321 136.023 75.6765 136.668C75.4286 136.759 75.2459 136.823 75.1334 136.858C71.3839 137.997 67.5403 138.574 63.7152 138.627C59.5482 138.702 55.3882 138.146 51.2775 136.954C50.3541 136.696 49.2036 136.299 48.0198 135.845C47.6684 135.712 47.3187 135.574 46.9709 135.431C45.0975 134.671 43.2829 133.826 42.2889 133.213C41.7529 132.895 40.7134 132.271 39.986 131.816C38.8782 131.152 37.5683 130.181 36.219 129.04C33.5047 126.822 31.0499 124.247 28.9405 121.343C27.3906 119.205 26.0444 116.883 24.9228 114.441C22.8074 109.89 21.5004 104.943 21.125 99.8978C21.0507 98.9462 21.01 97.9945 21.0037 97.0458C21.0031 94.7532 21.0409 93.9284 21.3943 90.9234C21.5689 89.4488 22.2574 86.1439 22.5692 85.3949C22.6642 85.167 22.8255 84.6419 22.9 84.2335C23.0566 83.4674 23.6967 81.827 24.4701 80.0848C25.066 78.7078 25.7246 77.3048 26.2463 76.3544L27.3231 74.319L27.5079 74.2429C29.8345 70.5854 32.4501 67.5839 35.7984 64.7285C39.008 61.976 41.6547 60.3456 46.6703 57.9816C49.1598 56.8206 51.7035 55.5294 52.3018 55.148C52.3523 55.1147 52.4027 55.0813 52.453 55.0478L53.658 54.1584C55.3456 52.9503 57.9474 50.5561 58.9077 49.3511C59.0333 49.2006 59.1937 49.0033 59.3664 48.7908C59.631 48.4654 59.9245 48.1045 60.1654 47.8224C60.6858 47.1296 61.1745 46.4155 61.631 45.6808C62.1268 44.8566 62.6421 43.9218 63.1129 42.9944C64.7486 39.6279 65.7769 35.8999 66.1571 31.8767C66.3899 29.2991 66.7438 28.5868 67.9431 28.0924C68.0597 28.0444 68.1721 28.0034 68.2818 27.9702C69.3049 27.6563 70.092 28.0088 71.8861 29.5164C74.9694 32.0854 78.3011 33.9975 81.8072 35.2345C82.8511 35.5815 83.9398 35.9001 84.9206 36.1448C85.7226 36.3321 86.5322 36.4857 87.3485 36.6054C87.7221 36.6355 88.1959 36.6861 88.6222 36.7315C88.8944 36.7606 89.1473 36.7875 89.3424 36.8058C90.873 36.9842 94.4061 36.8497 96.4548 36.5178L97.9726 36.2946C98.0201 36.2852 98.0677 36.2757 98.1152 36.2661C98.8085 36.1152 101.523 35.239 104.108 34.3086C109.332 32.4519 112.359 31.7438 116.576 31.4354C120.963 31.1021 124.933 31.3887 129.16 32.344L129.347 32.2669L131.545 32.9523C132.618 33.2688 134.134 33.8245 135.567 34.4007C137.291 35.0758 138.838 35.7643 139.472 36.1869C139.813 36.4241 140.298 36.683 140.526 36.7779C141.275 37.0896 144.092 38.9496 145.255 39.8729C147.623 41.7561 148.231 42.3148 149.846 43.9419C150.474 44.5826 151.082 45.2468 151.668 45.9322C155.002 49.7996 157.593 54.2681 159.316 59.0307C160.245 61.5592 160.928 64.1608 161.335 66.7748C161.887 70.3384 161.958 73.9119 161.588 77.4135C161.435 79.1545 161.191 80.7478 160.876 81.9877C160.681 82.8234 160.383 83.9983 160.227 84.602C159.966 85.6862 159.323 87.4476 158.574 89.223C158.357 89.7472 158.129 90.267 157.891 90.7819C157.41 91.836 156.92 92.8222 156.484 93.5896C154.47 97.2189 152.002 100.457 149.109 103.278ZM68.6396 129.966C69.8369 129.759 71.0366 129.487 72.237 129.151C72.3696 129.114 72.6409 129.019 73.037 128.871C80.9959 125.89 133.823 104.099 136.114 102.822C137.246 102.19 138.329 101.509 139.36 100.781C142.274 98.67 145.027 95.9442 147.189 93.0334C148.667 90.9668 149.911 88.7134 150.91 86.2842C153.527 79.999 154.204 73.6395 152.985 66.9534C152.68 65.4127 152.26 63.8774 151.725 62.3396C150.799 59.825 149.452 56.8967 148.407 55.27C146.903 52.9308 144.932 50.6033 142.779 48.5694C142.482 48.2958 142.177 48.0212 141.862 47.7452C140.137 46.2239 138.307 44.9071 136.384 43.7992C134.407 42.7225 131.321 41.4294 129.206 40.7565C128.09 40.4368 126.952 40.1762 125.795 39.9753C122.314 39.4177 118.196 39.3386 114.926 39.8293C112.815 40.1492 111.55 40.3938 106.504 42.3455L79.702 53.3235C79.2429 53.5116 78.7902 53.6971 78.3436 53.88C78.0277 54.011 77.7086 54.1433 77.3865 54.2769L50.7194 65.3369C45.6903 67.537 44.618 68.2556 42.8847 69.5235C40.1888 71.5014 37.2883 74.5034 35.2062 77.3811C34.5625 78.2953 33.9697 79.2353 33.4285 80.1995C32.3905 82.179 31.0874 85.3302 30.443 87.5051C29.8663 89.632 29.4997 91.8405 29.3488 94.1187C29.3215 94.5142 29.2991 94.9027 29.2819 95.285C29.1816 98.2661 29.422 101.332 30.0077 104.072C30.4124 105.961 31.5182 108.985 32.6325 111.421C33.3408 112.898 34.1297 114.291 35.0049 115.606C38.8493 121.2 43.8064 125.229 50.0852 127.842C52.4781 128.851 54.9203 129.568 57.3963 129.995C61.0538 130.557 65.0176 130.548 68.6396 129.966Z" fill="transparent" />
<path d="M139.49 110.333L139.954 111.219L139.958 111.217L139.49 110.333ZM149.109 103.278L148.411 102.562L148.408 102.565L149.109 103.278ZM138.917 110.605L138.502 109.695L138.49 109.701L138.478 109.707L138.917 110.605ZM108.692 123.283L108.311 122.358L108.311 122.358L108.692 123.283ZM75.6765 136.668L75.3635 135.718L75.3471 135.723L75.3308 135.729L75.6765 136.668ZM75.1334 136.858L75.4241 137.815L75.4286 137.813L75.1334 136.858ZM63.7152 138.627L63.7015 137.627L63.697 137.627L63.7152 138.627ZM51.2775 136.954L51.556 135.993L51.5465 135.991L51.2775 136.954ZM48.0198 135.845L48.378 134.912L48.3746 134.91L48.0198 135.845ZM46.9709 135.431L47.3502 134.506L47.3467 134.505L46.9709 135.431ZM42.2889 133.213L42.8139 132.362L42.8069 132.358L42.7998 132.354L42.2889 133.213ZM39.986 131.816L40.5168 130.968L40.5085 130.963L40.5001 130.958L39.986 131.816ZM36.219 129.04L36.8648 128.276L36.8583 128.271L36.8517 128.265L36.219 129.04ZM28.9405 121.343L28.131 121.93L28.1314 121.93L28.9405 121.343ZM24.9228 114.441L25.8316 114.023L25.8296 114.019L24.9228 114.441ZM21.125 99.8978L22.1223 99.8236L22.122 99.82L21.125 99.8978ZM21.0037 97.0458L20.0037 97.0461L20.0037 97.0524L21.0037 97.0458ZM21.3943 90.9234L20.4012 90.8058L20.4011 90.8066L21.3943 90.9234ZM22.5692 85.3949L21.6461 85.0105L21.6461 85.0105L22.5692 85.3949ZM22.9 84.2335L21.9203 84.0333L21.9182 84.0436L21.9163 84.054L22.9 84.2335ZM24.4701 80.0848L25.3841 80.4905L25.3878 80.482L24.4701 80.0848ZM26.2463 76.3544L27.1229 76.8356L27.1266 76.8288L27.1302 76.822L26.2463 76.3544ZM27.3231 74.319L26.9421 73.3945L26.6081 73.5321L26.4392 73.8514L27.3231 74.319ZM27.5079 74.2429L27.889 75.1674L28.1817 75.0468L28.3516 74.7796L27.5079 74.2429ZM35.7984 64.7285L36.4473 65.4894L36.4494 65.4876L35.7984 64.7285ZM46.6703 57.9816L46.2477 57.0753L46.244 57.077L46.6703 57.9816ZM52.3018 55.148L52.8394 55.9912L52.8455 55.9872L52.8516 55.9832L52.3018 55.148ZM52.453 55.0478L53.0073 55.8801L53.0275 55.8667L53.0469 55.8524L52.453 55.0478ZM53.658 54.1584L53.0759 53.3452L53.07 53.3495L53.0641 53.3538L53.658 54.1584ZM58.9077 49.3511L58.1399 48.7103L58.1327 48.719L58.1256 48.7279L58.9077 49.3511ZM59.3664 48.7908L58.5905 48.16L58.5905 48.16L59.3664 48.7908ZM60.1654 47.8224L60.9257 48.472L60.9462 48.4481L60.965 48.4229L60.1654 47.8224ZM61.631 45.6808L62.4804 46.2087L62.4842 46.2025L62.488 46.1963L61.631 45.6808ZM63.1129 42.9944L64.0046 43.447L64.0085 43.4392L64.0123 43.4314L63.1129 42.9944ZM66.1571 31.8767L67.1527 31.9708L67.1531 31.9666L66.1571 31.8767ZM68.2818 27.9702L68.572 28.9271L68.5751 28.9262L68.2818 27.9702ZM71.8861 29.5164L71.2427 30.282L71.246 30.2847L71.8861 29.5164ZM81.8072 35.2345L81.4745 36.1775L81.4831 36.1806L81.4918 36.1834L81.8072 35.2345ZM84.9206 36.1448L84.6786 37.1151L84.6859 37.1169L84.6932 37.1186L84.9206 36.1448ZM87.3485 36.6054L87.2034 37.5948L87.2357 37.5995L87.2681 37.6022L87.3485 36.6054ZM88.6222 36.7315L88.7282 35.7372L88.7282 35.7372L88.6222 36.7315ZM89.3424 36.8058L89.4582 35.8125L89.447 35.8112L89.4357 35.8102L89.3424 36.8058ZM96.4548 36.5178L96.3093 35.5285L96.3021 35.5295L96.2949 35.5307L96.4548 36.5178ZM97.9726 36.2946L98.1182 37.2839L98.1426 37.2803L98.1668 37.2755L97.9726 36.2946ZM98.1152 36.2661L98.3136 37.2462L98.3207 37.2447L98.3278 37.2432L98.1152 36.2661ZM104.108 34.3086L103.773 33.3663L103.769 33.3677L104.108 34.3086ZM116.576 31.4354L116.649 32.4327L116.652 32.4325L116.576 31.4354ZM129.16 32.344L128.94 33.3194L129.248 33.3892L129.541 33.2685L129.16 32.344ZM129.347 32.2669L129.645 31.3122L129.3 31.2047L128.966 31.3423L129.347 32.2669ZM131.545 32.9523L131.248 33.907L131.255 33.9093L131.263 33.9115L131.545 32.9523ZM135.567 34.4007L135.193 35.3285L135.202 35.3319L135.567 34.4007ZM139.472 36.1869L140.044 35.3663L140.035 35.3603L140.027 35.3545L139.472 36.1869ZM140.526 36.7779L140.141 37.7012L140.141 37.7012L140.526 36.7779ZM145.255 39.8729L145.877 39.0902L145.877 39.0897L145.255 39.8729ZM149.846 43.9419L150.56 43.242L150.556 43.2375L149.846 43.9419ZM151.668 45.9322L150.908 46.5824L150.911 46.5851L151.668 45.9322ZM159.316 59.0307L158.376 59.3709L158.378 59.3753L159.316 59.0307ZM161.335 66.7748L162.323 66.6216L162.323 66.621L161.335 66.7748ZM161.588 77.4135L160.594 77.3086L160.593 77.3172L160.592 77.3257L161.588 77.4135ZM160.876 81.9877L159.907 81.7413L159.905 81.7507L159.902 81.7602L160.876 81.9877ZM160.227 84.602L159.259 84.3521L159.257 84.36L159.255 84.368L160.227 84.602ZM158.574 89.223L157.653 88.8345L157.651 88.8397L158.574 89.223ZM157.891 90.7819L156.983 90.3622L156.981 90.367L157.891 90.7819ZM156.484 93.5896L155.615 93.0957L155.61 93.1044L156.484 93.5896ZM72.237 129.151L72.5066 130.114L72.507 130.114L72.237 129.151ZM68.6396 129.966L68.7983 130.953L68.81 130.951L68.6396 129.966ZM73.037 128.871L73.386 129.808L73.3878 129.808L73.037 128.871ZM136.114 102.822L136.601 103.695L136.601 103.695L136.114 102.822ZM139.36 100.781L139.937 101.598L139.947 101.591L139.36 100.781ZM147.189 93.0334L147.992 93.6297L147.998 93.6225L148.003 93.6151L147.189 93.0334ZM150.91 86.2842L149.987 85.8998L149.985 85.904L150.91 86.2842ZM152.985 66.9534L153.968 66.774L153.967 66.7665L153.966 66.7591L152.985 66.9534ZM151.725 62.3396L152.669 62.0112L152.666 62.0027L152.663 61.9942L151.725 62.3396ZM148.407 55.27L149.248 54.7297L149.248 54.7293L148.407 55.27ZM142.779 48.5694L143.466 47.8425L143.457 47.8345L142.779 48.5694ZM141.862 47.7452L141.201 48.4952L141.203 48.4971L141.862 47.7452ZM136.384 43.7992L136.883 42.9327L136.872 42.9267L136.862 42.921L136.384 43.7992ZM129.206 40.7565L129.509 39.8035L129.495 39.7991L129.481 39.7951L129.206 40.7565ZM125.795 39.9753L125.966 38.99L125.953 38.9879L125.795 39.9753ZM114.926 39.8293L114.778 38.8403L114.776 38.8406L114.926 39.8293ZM106.504 42.3455L106.143 41.4129L106.134 41.4164L106.125 41.4201L106.504 42.3455ZM79.702 53.3235L79.323 52.3981L79.3229 52.3982L79.702 53.3235ZM78.3436 53.88L77.9645 52.9547L77.9606 52.9563L78.3436 53.88ZM77.3865 54.2769L77.0034 53.3532L77.0034 53.3532L77.3865 54.2769ZM50.7194 65.3369L50.3363 64.4132L50.3275 64.4169L50.3186 64.4207L50.7194 65.3369ZM42.8847 69.5235L42.2943 68.7164L42.2931 68.7172L42.8847 69.5235ZM35.2062 77.3811L34.3959 76.7948L34.3885 76.8054L35.2062 77.3811ZM33.4285 80.1995L32.5565 79.7101L32.5495 79.7225L32.5429 79.7351L33.4285 80.1995ZM30.443 87.5051L29.4842 87.221L29.4809 87.2322L29.4778 87.2434L30.443 87.5051ZM29.3488 94.1187L30.3464 94.1877L30.3466 94.1848L29.3488 94.1187ZM29.2819 95.285L28.2828 95.24L28.2824 95.2514L29.2819 95.285ZM30.0077 104.072L29.0298 104.281L29.0299 104.281L30.0077 104.072ZM32.6325 111.421L31.7232 111.837L31.7269 111.845L31.7308 111.853L32.6325 111.421ZM35.0049 115.606L34.1724 116.16L34.1765 116.167L34.1808 116.173L35.0049 115.606ZM50.0852 127.842L50.4736 126.921L50.4694 126.919L50.0852 127.842ZM57.3963 129.995L57.2265 130.981L57.2354 130.982L57.2444 130.983L57.3963 129.995ZM139.958 111.217C143.623 109.276 146.928 106.827 149.811 103.991L148.408 102.565C145.66 105.269 142.512 107.602 139.022 109.449L139.958 111.217ZM139.331 111.515C139.599 111.393 139.815 111.292 139.954 111.219L139.026 109.447C138.941 109.492 138.771 109.573 138.502 109.695L139.331 111.515ZM138.478 109.707C136.562 110.643 122.689 116.433 108.311 122.358L109.073 124.207C123.399 118.304 137.365 112.477 139.356 111.504L138.478 109.707ZM75.9896 137.617C77.9909 136.958 93.7518 130.533 109.074 124.207L108.311 122.358C92.9257 128.71 77.2733 135.088 75.3635 135.718L75.9896 137.617ZM75.3308 135.729C75.0836 135.82 74.9229 135.876 74.8383 135.902L75.4286 137.813C75.5689 137.77 75.7736 137.698 76.0223 137.606L75.3308 135.729ZM74.8427 135.901C71.1854 137.012 67.4352 137.576 63.7015 137.627L63.7289 139.626C67.6455 139.573 71.5824 138.982 75.4241 137.815L74.8427 135.901ZM50.9989 137.914C55.2041 139.134 59.464 139.704 63.7334 139.626L63.697 137.627C59.6323 137.701 55.5723 137.158 51.556 135.993L50.9989 137.914ZM47.6616 136.779C48.8615 137.239 50.0438 137.647 51.0085 137.917L51.5465 135.991C50.6644 135.744 49.5458 135.36 48.378 134.912L47.6616 136.779ZM48.3746 134.91C48.0314 134.78 47.6899 134.645 47.3502 134.506L46.5916 136.356C46.9475 136.502 47.3053 136.644 47.6649 136.78L48.3746 134.91ZM41.764 134.065C42.8324 134.724 44.7112 135.594 46.5951 136.358L47.3467 134.505C45.4838 133.749 43.7334 132.929 42.8139 132.362L41.764 134.065ZM39.4553 132.663C40.193 133.125 41.2407 133.754 41.778 134.073L42.7998 132.354C42.2651 132.036 41.2339 131.417 40.5168 130.968L39.4553 132.663ZM35.5732 129.803C36.9472 130.965 38.3023 131.973 39.4719 132.674L40.5001 130.958C39.4541 130.331 38.1893 129.396 36.8648 128.276L35.5732 129.803ZM36.8517 128.265C34.2024 126.101 31.8073 123.588 29.7496 120.755L28.1314 121.93C30.2925 124.906 32.807 127.543 35.5863 129.814L36.8517 128.265ZM29.75 120.756C28.2404 118.674 26.927 116.409 25.8316 114.023L24.014 114.858C25.1617 117.358 26.5407 119.737 28.131 121.93L29.75 120.756ZM20.1278 99.9721C20.5123 105.139 21.8506 110.204 24.016 114.862L25.8296 114.019C23.7642 109.576 22.4886 104.746 22.1223 99.8236L20.1278 99.9721ZM22.122 99.82C22.0495 98.8916 22.0098 97.9637 22.0037 97.0392L20.0037 97.0524C20.0101 98.0253 20.0519 99.0008 20.1281 99.9757L22.122 99.82ZM22.0037 97.0456C22.0031 94.7962 22.0381 94.0107 22.3874 91.0402L20.4011 90.8066C20.0437 93.8461 20.0031 94.7102 20.0037 97.0461L22.0037 97.0456ZM22.3873 91.0411C22.4694 90.3482 22.678 89.1876 22.9088 88.0934C23.1476 86.9614 23.3799 86.0494 23.4924 85.7793L21.6461 85.0105C21.4467 85.4893 21.1789 86.6043 20.9518 87.6806C20.7168 88.7948 20.4938 90.024 20.4012 90.8058L22.3873 91.0411ZM23.4924 85.7793C23.6166 85.481 23.7973 84.8868 23.8838 84.4131L21.9163 84.054C21.8871 84.2137 21.8377 84.4118 21.7823 84.6017C21.7256 84.7961 21.6734 84.9449 21.6461 85.0105L23.4924 85.7793ZM23.8798 84.4338C24.0109 83.7922 24.6024 82.2514 25.3841 80.4905L23.556 79.6791C22.7909 81.4027 22.1023 83.1425 21.9203 84.0333L23.8798 84.4338ZM25.3697 75.8731C24.8261 76.8634 24.1532 78.2992 23.5523 79.6876L25.3878 80.482C25.9788 79.1165 26.6231 77.7461 27.1229 76.8356L25.3697 75.8731ZM26.4392 73.8514L25.3624 75.8867L27.1302 76.822L28.207 74.7867L26.4392 73.8514ZM27.1268 73.3183L26.9421 73.3945L27.7042 75.2436L27.889 75.1674L27.1268 73.3183ZM28.3516 74.7796C30.624 71.2074 33.1735 68.2812 36.4473 65.4894L35.1496 63.9676C31.7266 66.8865 29.045 69.9633 26.6641 73.7062L28.3516 74.7796ZM36.4494 65.4876C39.5721 62.8096 42.1361 61.2242 47.0966 58.8862L46.244 57.077C41.1733 59.467 38.4438 61.1424 35.1474 63.9694L36.4494 65.4876ZM47.0929 58.8879C49.569 57.7332 52.1754 56.4145 52.8394 55.9912L51.7641 54.3048C51.2315 54.6444 48.7506 55.9081 46.2477 57.0753L47.0929 58.8879ZM52.8516 55.9832C52.9037 55.9489 52.9556 55.9146 53.0073 55.8801L51.8987 54.2155C51.8499 54.248 51.8009 54.2804 51.7519 54.3127L52.8516 55.9832ZM53.0641 53.3538L51.8591 54.2432L53.0469 55.8524L54.2519 54.9629L53.0641 53.3538ZM58.1256 48.7279C57.2365 49.8435 54.7086 52.1764 53.0759 53.3452L54.2401 54.9715C55.9826 53.7241 58.6582 51.2687 59.6897 49.9743L58.1256 48.7279ZM58.5905 48.16C58.4163 48.3743 58.2605 48.5659 58.1399 48.7103L59.6754 49.9918C59.8061 49.8353 59.9711 49.6322 60.1424 49.4216L58.5905 48.16ZM59.4051 47.1728C59.1546 47.4661 58.8528 47.8374 58.5905 48.16L60.1423 49.4217C60.4093 49.0933 60.6943 48.7428 60.9257 48.472L59.4051 47.1728ZM60.965 48.4229C61.503 47.7067 62.0083 46.9683 62.4804 46.2087L60.7817 45.153C60.3407 45.8626 59.8686 46.5525 59.3659 47.2218L60.965 48.4229ZM62.2212 42.5418C61.7603 43.4498 61.2565 44.3634 60.7741 45.1654L62.488 46.1963C62.9972 45.3497 63.524 44.3939 64.0046 43.447L62.2212 42.5418ZM64.0123 43.4314C65.7036 39.9507 66.762 36.1056 67.1527 31.9708L65.1616 31.7826C64.7919 35.6942 63.7937 39.3051 62.2134 42.5574L64.0123 43.4314ZM67.1531 31.9666C67.27 30.672 67.4087 30.0153 67.5906 29.6331C67.7234 29.354 67.8852 29.1979 68.3242 29.017L67.562 27.1679C66.8017 27.4813 66.1869 27.9285 65.7847 28.7736C65.4316 29.5155 65.277 30.5039 65.1612 31.7868L67.1531 31.9666ZM68.3242 29.017C68.4169 28.9788 68.4987 28.9494 68.572 28.9271L67.9916 27.0132C67.8455 27.0575 67.7025 27.11 67.562 27.1679L68.3242 29.017ZM72.5294 28.7508C71.6306 27.9955 70.8877 27.4433 70.1917 27.1423C69.4187 26.8081 68.7212 26.7894 67.9886 27.0141L68.5751 28.9262C68.8656 28.8371 69.0731 28.8377 69.398 28.9781C69.7998 29.1519 70.3475 29.5297 71.2427 30.282L72.5294 28.7508ZM82.1399 34.2915C78.7527 33.0964 75.524 31.2459 72.5262 28.7481L71.246 30.2847C74.4147 32.925 77.8495 34.8986 81.4745 36.1775L82.1399 34.2915ZM81.4918 36.1834C82.5575 36.5377 83.6707 36.8637 84.6786 37.1151L85.1627 35.1745C84.2089 34.9366 83.1448 34.6253 82.1227 34.2855L81.4918 36.1834ZM87.4935 35.616C86.7049 35.5004 85.9228 35.352 85.1481 35.171L84.6932 37.1186C85.5224 37.3123 86.3595 37.4711 87.2034 37.5948L87.4935 35.616ZM87.2681 37.6022C87.6262 37.631 88.0857 37.68 88.5161 37.7259L88.7282 35.7372C88.306 35.6921 87.8181 35.64 87.4289 35.6086L87.2681 37.6022ZM88.5161 37.7259C88.786 37.7547 89.0462 37.7824 89.2492 37.8015L89.4357 35.8102C89.2484 35.7926 89.0028 35.7665 88.7282 35.7372L88.5161 37.7259ZM89.2266 37.7991C90.8707 37.9907 94.4994 37.8476 96.6147 37.505L96.2949 35.5307C94.3128 35.8518 90.8752 35.9777 89.4582 35.8125L89.2266 37.7991ZM96.6003 37.5072L98.1182 37.2839L97.8271 35.3052L96.3093 35.5285L96.6003 37.5072ZM97.9168 35.2859C97.8707 35.2952 97.8246 35.3045 97.7784 35.3136L98.1668 37.2755C98.2157 37.2659 98.2646 37.2561 98.3136 37.2462L97.9168 35.2859ZM103.769 33.3677C101.171 34.3031 98.5197 35.1546 97.9025 35.2889L98.3278 37.2432C99.0972 37.0757 101.876 36.1749 104.446 35.2495L103.769 33.3677ZM116.503 30.438C112.172 30.7548 109.055 31.4892 103.773 33.3663L104.443 35.2509C109.61 33.4145 112.546 32.7328 116.649 32.4327L116.503 30.438ZM129.38 31.3686C125.055 30.391 120.985 30.0976 116.5 30.4382L116.652 32.4325C120.941 32.1067 124.811 32.3864 128.94 33.3194L129.38 31.3686ZM129.541 33.2685L129.728 33.1914L128.966 31.3423L128.779 31.4194L129.541 33.2685ZM129.049 33.2215L131.248 33.907L131.843 31.9976L129.645 31.3122L129.049 33.2215ZM131.263 33.9115C132.291 34.2147 133.773 34.757 135.193 35.3285L135.94 33.4729C134.495 32.892 132.946 32.3228 131.828 31.9932L131.263 33.9115ZM140.027 35.3545C139.287 34.8622 137.637 34.1375 135.931 33.4696L135.202 35.3319C136.944 36.0141 138.388 36.6664 138.918 37.0193L140.027 35.3545ZM140.91 35.8546C140.844 35.8274 140.702 35.7585 140.525 35.6606C140.352 35.5649 140.177 35.4591 140.044 35.3663L138.901 37.0075C139.296 37.2827 139.843 37.577 140.141 37.7012L140.91 35.8546ZM145.877 39.0897C145.26 38.6002 144.236 37.8851 143.284 37.2601C142.364 36.6564 141.389 36.0539 140.91 35.8546L140.141 37.7012C140.411 37.8136 141.219 38.2969 142.186 38.9319C143.121 39.5457 144.087 40.2223 144.633 40.6561L145.877 39.0897ZM150.556 43.2375C148.91 41.5796 148.273 40.9951 145.877 39.0902L144.632 40.6556C146.973 42.5172 147.552 43.0499 149.136 44.6464L150.556 43.2375ZM152.428 45.2821C151.827 44.5798 151.204 43.899 150.56 43.242L149.132 44.6419C149.744 45.2662 150.336 45.9137 150.908 46.5824L152.428 45.2821ZM150.911 46.5851C154.163 50.3587 156.694 54.7208 158.376 59.3709L160.257 58.6905C158.493 53.8153 155.84 49.2405 152.426 45.2793L150.911 46.5851ZM162.323 66.621C161.905 63.939 161.205 61.2735 160.255 58.686L158.378 59.3753C159.284 61.8448 159.95 64.3827 160.346 66.9286L162.323 66.621ZM162.583 77.5184C162.961 73.9329 162.889 70.2726 162.323 66.6216L160.346 66.9279C160.885 70.4042 160.954 73.8909 160.594 77.3086L162.583 77.5184ZM160.592 77.3257C160.442 79.0345 160.205 80.5707 159.907 81.7413L161.845 82.234C162.178 80.9248 162.428 79.2745 162.585 77.5013L160.592 77.3257ZM159.902 81.7602C159.71 82.5842 159.414 83.7498 159.259 84.3521L161.195 84.852C161.351 84.2468 161.652 83.0626 161.85 82.2151L159.902 81.7602ZM159.255 84.368C159.014 85.3695 158.397 87.0693 157.653 88.8345L159.496 89.6116C160.249 87.8259 160.918 86.0029 161.199 84.8361L159.255 84.368ZM158.798 91.2016C159.042 90.6746 159.275 90.1428 159.498 89.6064L157.651 88.8397C157.438 89.3516 157.215 89.8593 156.983 90.3623L158.798 91.2016ZM156.981 90.367C156.507 91.4058 156.031 92.3632 155.615 93.0957L157.354 94.0835C157.81 93.2812 158.313 92.2661 158.8 91.1969L156.981 90.367ZM155.61 93.1044C153.642 96.6504 151.233 99.8102 148.411 102.562L149.808 103.994C152.771 101.103 155.298 97.7874 157.359 94.0748L155.61 93.1044ZM71.9675 128.188C70.7989 128.515 69.6323 128.779 68.4691 128.98L68.81 130.951C70.0415 130.738 71.2743 130.459 72.5066 130.114L71.9675 128.188ZM72.688 127.934C72.2833 128.085 72.0522 128.164 71.9671 128.188L72.507 130.114C72.687 130.063 72.9985 129.953 73.386 129.808L72.688 127.934ZM73.3878 129.808C77.3868 128.309 92.6026 122.108 107.083 116.132C114.328 113.141 121.397 110.204 126.798 107.933C129.499 106.798 131.785 105.829 133.468 105.104C135.117 104.393 136.258 103.887 136.601 103.695L135.627 101.948C135.398 102.076 134.386 102.53 132.677 103.267C131.001 103.989 128.722 104.956 126.024 106.09C120.627 108.358 113.562 111.293 106.32 114.283C91.8235 120.266 76.6462 126.451 72.6862 127.935L73.3878 129.808ZM136.601 103.695C137.764 103.047 138.876 102.347 139.937 101.598L138.783 99.9642C137.781 100.672 136.729 101.334 135.627 101.949L136.601 103.695ZM146.387 92.437C144.284 95.267 141.604 97.9206 138.774 99.9713L139.947 101.591C142.944 99.4194 145.77 96.6214 147.992 93.6297L146.387 92.437ZM148.003 93.6151C149.527 91.4843 150.808 89.163 151.835 86.6644L149.985 85.904C149.015 88.2638 147.808 90.4493 146.376 92.4516L148.003 93.6151ZM151.833 86.6686C154.525 80.2047 155.222 73.6494 153.968 66.774L152.001 67.1328C153.186 73.6296 152.53 79.7933 149.987 85.8998L151.833 86.6686ZM150.78 62.6681C151.301 64.1641 151.708 65.6545 152.004 67.1477L153.966 66.7591C153.651 65.1708 153.219 63.5908 152.669 62.0112L150.78 62.6681ZM152.663 61.9942C151.725 59.4466 150.348 56.4428 149.248 54.7297L147.565 55.8104C148.555 57.3507 149.873 60.2034 150.786 62.6851L152.663 61.9942ZM149.248 54.7293C147.696 52.3142 145.67 49.9252 143.466 47.8425L142.092 49.2964C144.193 51.2814 146.111 53.5474 147.566 55.8107L149.248 54.7293ZM141.203 48.4971C141.512 48.7679 141.811 49.0367 142.101 49.3044L143.457 47.8345C143.154 47.5548 142.842 47.2746 142.521 46.9933L141.203 48.4971ZM135.885 44.6657C137.748 45.7394 139.524 47.0168 141.201 48.4952L142.524 46.9952C140.75 45.431 138.865 44.0748 136.883 42.9327L135.885 44.6657ZM136.862 42.921C134.825 41.8116 131.681 40.4942 129.509 39.8035L128.903 41.7094C130.962 42.3645 133.988 43.6334 135.905 44.6774L136.862 42.921ZM125.623 40.9606C126.746 41.1555 127.849 41.4081 128.93 41.7178L129.481 39.7951C128.33 39.4656 127.158 39.197 125.966 38.9901L125.623 40.9606ZM125.953 38.9879C122.384 38.4162 118.162 38.3325 114.778 38.8403L115.074 40.8182C118.23 40.3447 122.243 40.4191 125.636 40.9627L125.953 38.9879ZM114.776 38.8406C112.571 39.1747 111.233 39.4442 106.143 41.4129L106.864 43.2782C111.867 41.3434 113.059 41.1236 115.076 40.818L114.776 38.8406ZM80.081 54.2489L106.883 43.2709L106.125 41.4201L79.323 52.3981L80.081 54.2489ZM78.7228 54.8054C79.1693 54.6224 79.6221 54.4369 80.0811 54.2489L79.3229 52.3982C78.8638 52.5862 78.4111 52.7717 77.9645 52.9547L78.7228 54.8054ZM77.9606 52.9563C77.6447 53.0873 77.3256 53.2196 77.0034 53.3532L77.7695 55.2006C78.0917 55.0671 78.4107 54.9348 78.7267 54.8038L77.9606 52.9563ZM77.0034 53.3532L50.3363 64.4132L51.1025 66.2606L77.7696 55.2006L77.0034 53.3532ZM43.475 70.3307C45.131 69.1194 46.1334 68.4347 51.1202 66.253L50.3186 64.4207C45.2473 66.6393 44.105 67.3919 42.2943 68.7164L43.475 70.3307ZM36.0163 77.9673C38.0455 75.1629 40.8745 72.2386 43.4762 70.3298L42.2931 68.7172C39.5031 70.7642 36.5312 73.844 34.396 76.7949L36.0163 77.9673ZM34.3885 76.8054C33.7254 77.7472 33.1145 78.7159 32.5565 79.7101L34.3005 80.689C34.8249 79.7547 35.3996 78.8435 36.0238 77.9567L34.3885 76.8054ZM31.4017 87.7892C32.0264 85.6813 33.3039 82.5903 34.3141 80.6639L32.5429 79.7351C31.477 81.7678 30.1485 84.9791 29.4842 87.221L31.4017 87.7892ZM29.4778 87.2434C28.8833 89.4361 28.5061 91.7101 28.351 94.0527L30.3466 94.1848C30.4932 91.9709 30.8492 89.828 31.4081 87.7668L29.4778 87.2434ZM28.3512 94.0498C28.3233 94.4528 28.3005 94.8492 28.2829 95.24L30.2809 95.3301C30.2977 94.9561 30.3196 94.5756 30.3464 94.1877L28.3512 94.0498ZM30.9856 103.862C30.4189 101.212 30.1835 98.2281 30.2813 95.3187L28.2824 95.2514C28.1798 98.304 28.4251 101.452 29.0298 104.281L30.9856 103.862ZM33.5419 111.005C32.4422 108.601 31.3687 105.651 30.9855 103.862L29.0299 104.281C29.4561 106.27 30.5943 109.369 31.7232 111.837L33.5419 111.005ZM31.7308 111.853C32.4583 113.37 33.2702 114.804 34.1724 116.16L35.8375 115.052C34.9893 113.778 34.2232 112.425 33.5342 110.988L31.7308 111.853ZM50.4694 126.919C44.3691 124.38 39.5645 120.475 35.8291 115.04L34.1808 116.173C38.134 121.925 43.2438 126.078 49.701 128.765L50.4694 126.919ZM57.5662 129.01C55.1672 128.596 52.7982 127.9 50.4736 126.921L49.6968 128.764C52.1581 129.801 54.6735 130.541 57.2265 130.981L57.5662 129.01ZM57.2444 130.983C61.0037 131.561 65.0722 131.552 68.7983 130.953L68.4809 128.978C64.9629 129.544 61.104 129.553 57.5482 129.007L57.2444 130.983Z" fill="#878787" mask="url(#path-3-inside-1_341_1216)" />
</svg>