<svg width="85" height="91" viewBox="0 0 85 91" fill="none" xmlns="http://www.w3.org/2000/svg">
<mask id="path-1-inside-1_583_462" fill="white">
<path d="M2.77314 32.9791C0.155875 34.8655 -0.538205 38.7111 1.23644 41.4933L30.6946 87.6758C32.4693 90.458 36.0869 91.1958 38.7042 89.3093L82.1495 57.9952C84.7668 56.1087 85.4609 52.2632 83.6862 49.481L74.1585 34.5442L79.0439 7.5939C79.1345 7.07581 79.0293 6.54061 78.7511 6.10444C78.4729 5.66828 78.0441 5.36632 77.5578 5.26407L65.7069 2.84712C65.4307 2.78708 65.1453 2.79373 64.8718 2.86658C64.5983 2.93942 64.3437 3.07661 64.1268 3.26801C63.8047 3.569 63.5889 3.97782 63.5151 4.42687L61.6421 14.9218L54.228 3.29846C52.4534 0.516303 48.8357 -0.221505 46.2185 1.66494L2.77314 32.9791ZM4.88673 36.2926L48.3321 4.97849C49.2802 4.29509 50.468 4.53733 51.1109 5.54522L60.6386 20.4821L56.288 44.7039C56.1914 45.2232 56.2922 45.7619 56.5684 46.2024L61.3239 53.6578C61.6043 54.0972 62.0373 54.4002 62.5277 54.5002C63.0182 54.6003 63.5259 54.4891 63.9393 54.1912L70.9529 49.136C71.3628 48.8355 71.644 48.3746 71.735 47.8543L73.1385 40.0786L80.5691 51.7277C81.212 52.7356 80.9841 53.9983 80.0359 54.6817L36.5906 85.9958C35.6424 86.6792 34.4547 86.437 33.8118 85.4291L4.35359 39.2465C3.71069 38.2387 3.93858 36.976 4.88673 36.2926ZM16.1615 40.2585C15.9633 40.4162 15.7962 40.6139 15.6699 40.8402C15.5435 41.0666 15.4603 41.3171 15.4251 41.5777C15.3898 41.8382 15.4032 42.1035 15.4645 42.3585C15.5257 42.6135 15.6336 42.8532 15.782 43.0639C15.9304 43.2746 16.1164 43.4521 16.3293 43.5864C16.5423 43.7207 16.778 43.809 17.0231 43.8464C17.2682 43.8838 17.5178 43.8696 17.7577 43.8044C17.9976 43.7393 18.223 43.6245 18.4212 43.4667L49.5927 20.9992C49.8012 20.8534 49.9804 20.6651 50.1198 20.4451C50.2593 20.2251 50.3562 19.9778 50.4049 19.7176C50.4537 19.4575 50.4533 19.1896 50.4038 18.9296C50.3544 18.6696 50.2567 18.4226 50.1167 18.203C49.9766 17.9835 49.7969 17.7957 49.588 17.6506C49.3791 17.5055 49.1451 17.406 48.8997 17.3579C48.6543 17.3097 48.4024 17.3139 48.1585 17.3702C47.9146 17.4264 47.6837 17.5337 47.4791 17.6856L16.3076 40.1532C16.2574 40.1859 16.2086 40.221 16.1615 40.2585ZM66.8402 7.13175L75.0132 8.79861L74.0959 13.8811L65.9229 12.2142L66.8402 7.13175ZM65.2172 16.1238L73.3903 17.7907L68.2061 46.2789L63.3843 49.7543L60.1148 44.6287L65.2172 16.1238ZM22.5023 50.1991C22.304 50.3568 22.137 50.5545 22.0106 50.7808C21.8843 51.0072 21.8011 51.2578 21.7659 51.5183C21.7306 51.7788 21.744 52.0441 21.8052 52.2992C21.8665 52.5542 21.9744 52.7939 22.1228 53.0045C22.2712 53.2152 22.4571 53.3928 22.6701 53.527C22.883 53.6613 23.1188 53.7497 23.3639 53.7871C23.609 53.8245 23.8586 53.8102 24.0985 53.745C24.3383 53.6799 24.5638 53.5652 24.762 53.4074L55.9335 30.9398C56.142 30.7941 56.3212 30.6057 56.4606 30.3857C56.6001 30.1657 56.697 29.9184 56.7457 29.6583C56.7945 29.3981 56.7941 29.1302 56.7446 28.8702C56.6951 28.6102 56.5975 28.3632 56.4575 28.1437C56.3174 27.9241 56.1377 27.7363 55.9288 27.5912C55.7199 27.4461 55.4859 27.3466 55.2405 27.2985C54.9951 27.2504 54.7431 27.2545 54.4993 27.3108C54.2554 27.3671 54.0245 27.4743 53.8199 27.6263L22.6484 50.0938C22.5981 50.1265 22.5494 50.1616 22.5023 50.1991ZM28.843 60.1398C28.6448 60.2975 28.4777 60.4951 28.3514 60.7215C28.225 60.9478 28.1419 61.1984 28.1066 61.4589C28.0714 61.7194 28.0848 61.9848 28.146 62.2398C28.2073 62.4948 28.3152 62.7345 28.4635 62.9452C28.6119 63.1559 28.7979 63.3334 29.0109 63.4677C29.2238 63.6019 29.4596 63.6903 29.7046 63.7277C29.9497 63.7651 30.1993 63.7508 30.4392 63.6857C30.6791 63.6205 30.9046 63.5058 31.1027 63.348L51.486 48.6563C51.6945 48.5106 51.8737 48.3222 52.0131 48.1022C52.1526 47.8822 52.2495 47.6349 52.2982 47.3748C52.347 47.1146 52.3466 46.8467 52.2971 46.5867C52.2476 46.3267 52.15 46.0798 52.01 45.8602C51.8699 45.6406 51.6902 45.4528 51.4813 45.3077C51.2724 45.1627 51.0384 45.0631 50.793 45.015C50.5476 44.9669 50.2956 44.971 50.0518 45.0273C49.8079 45.0836 49.577 45.1908 49.3724 45.3428L28.9892 60.0345C28.9389 60.0671 28.8902 60.1023 28.843 60.1398ZM35.1838 70.0804C34.9856 70.2381 34.8185 70.4358 34.6922 70.6621C34.5658 70.8885 34.4826 71.139 34.4474 71.3995C34.4122 71.6601 34.4255 71.9254 34.4868 72.1804C34.548 72.4354 34.6559 72.6751 34.8043 72.8858C34.9527 73.0965 35.1387 73.274 35.3516 73.4083C35.5646 73.5426 35.8003 73.6309 36.0454 73.6683C36.2905 73.7057 36.5401 73.6915 36.78 73.6263C37.0199 73.5612 37.2453 73.4464 37.4435 73.2886L57.705 58.6847C57.9135 58.539 58.0927 58.3506 58.2321 58.1306C58.3716 57.9106 58.4685 57.6633 58.5172 57.4032C58.566 57.143 58.5656 56.8751 58.5161 56.6151C58.4666 56.3551 58.369 56.1081 58.229 55.8886C58.0889 55.669 57.9092 55.4812 57.7003 55.3361C57.4914 55.191 57.2574 55.0915 57.012 55.0434C56.7666 54.9953 56.5146 54.9994 56.2708 55.0557C56.0269 55.112 55.796 55.2192 55.5914 55.3712L35.3299 69.9751C35.2797 70.0078 35.2309 70.0429 35.1838 70.0804Z"/>
</mask>
<path d="M2.77314 32.9791C0.155875 34.8655 -0.538205 38.7111 1.23644 41.4933L30.6946 87.6758C32.4693 90.458 36.0869 91.1958 38.7042 89.3093L82.1495 57.9952C84.7668 56.1087 85.4609 52.2632 83.6862 49.481L74.1585 34.5442L79.0439 7.5939C79.1345 7.07581 79.0293 6.54061 78.7511 6.10444C78.4729 5.66828 78.0441 5.36632 77.5578 5.26407L65.7069 2.84712C65.4307 2.78708 65.1453 2.79373 64.8718 2.86658C64.5983 2.93942 64.3437 3.07661 64.1268 3.26801C63.8047 3.569 63.5889 3.97782 63.5151 4.42687L61.6421 14.9218L54.228 3.29846C52.4534 0.516303 48.8357 -0.221505 46.2185 1.66494L2.77314 32.9791ZM4.88673 36.2926L48.3321 4.97849C49.2802 4.29509 50.468 4.53733 51.1109 5.54522L60.6386 20.4821L56.288 44.7039C56.1914 45.2232 56.2922 45.7619 56.5684 46.2024L61.3239 53.6578C61.6043 54.0972 62.0373 54.4002 62.5277 54.5002C63.0182 54.6003 63.5259 54.4891 63.9393 54.1912L70.9529 49.136C71.3628 48.8355 71.644 48.3746 71.735 47.8543L73.1385 40.0786L80.5691 51.7277C81.212 52.7356 80.9841 53.9983 80.0359 54.6817L36.5906 85.9958C35.6424 86.6792 34.4547 86.437 33.8118 85.4291L4.35359 39.2465C3.71069 38.2387 3.93858 36.976 4.88673 36.2926ZM16.1615 40.2585C15.9633 40.4162 15.7962 40.6139 15.6699 40.8402C15.5435 41.0666 15.4603 41.3171 15.4251 41.5777C15.3898 41.8382 15.4032 42.1035 15.4645 42.3585C15.5257 42.6135 15.6336 42.8532 15.782 43.0639C15.9304 43.2746 16.1164 43.4521 16.3293 43.5864C16.5423 43.7207 16.778 43.809 17.0231 43.8464C17.2682 43.8838 17.5178 43.8696 17.7577 43.8044C17.9976 43.7393 18.223 43.6245 18.4212 43.4667L49.5927 20.9992C49.8012 20.8534 49.9804 20.6651 50.1198 20.4451C50.2593 20.2251 50.3562 19.9778 50.4049 19.7176C50.4537 19.4575 50.4533 19.1896 50.4038 18.9296C50.3544 18.6696 50.2567 18.4226 50.1167 18.203C49.9766 17.9835 49.7969 17.7957 49.588 17.6506C49.3791 17.5055 49.1451 17.406 48.8997 17.3579C48.6543 17.3097 48.4024 17.3139 48.1585 17.3702C47.9146 17.4264 47.6837 17.5337 47.4791 17.6856L16.3076 40.1532C16.2574 40.1859 16.2086 40.221 16.1615 40.2585ZM66.8402 7.13175L75.0132 8.79861L74.0959 13.8811L65.9229 12.2142L66.8402 7.13175ZM65.2172 16.1238L73.3903 17.7907L68.2061 46.2789L63.3843 49.7543L60.1148 44.6287L65.2172 16.1238ZM22.5023 50.1991C22.304 50.3568 22.137 50.5545 22.0106 50.7808C21.8843 51.0072 21.8011 51.2578 21.7659 51.5183C21.7306 51.7788 21.744 52.0441 21.8052 52.2992C21.8665 52.5542 21.9744 52.7939 22.1228 53.0045C22.2712 53.2152 22.4571 53.3928 22.6701 53.527C22.883 53.6613 23.1188 53.7497 23.3639 53.7871C23.609 53.8245 23.8586 53.8102 24.0985 53.745C24.3383 53.6799 24.5638 53.5652 24.762 53.4074L55.9335 30.9398C56.142 30.7941 56.3212 30.6057 56.4606 30.3857C56.6001 30.1657 56.697 29.9184 56.7457 29.6583C56.7945 29.3981 56.7941 29.1302 56.7446 28.8702C56.6951 28.6102 56.5975 28.3632 56.4575 28.1437C56.3174 27.9241 56.1377 27.7363 55.9288 27.5912C55.7199 27.4461 55.4859 27.3466 55.2405 27.2985C54.9951 27.2504 54.7431 27.2545 54.4993 27.3108C54.2554 27.3671 54.0245 27.4743 53.8199 27.6263L22.6484 50.0938C22.5981 50.1265 22.5494 50.1616 22.5023 50.1991ZM28.843 60.1398C28.6448 60.2975 28.4777 60.4951 28.3514 60.7215C28.225 60.9478 28.1419 61.1984 28.1066 61.4589C28.0714 61.7194 28.0848 61.9848 28.146 62.2398C28.2073 62.4948 28.3152 62.7345 28.4635 62.9452C28.6119 63.1559 28.7979 63.3334 29.0109 63.4677C29.2238 63.6019 29.4596 63.6903 29.7046 63.7277C29.9497 63.7651 30.1993 63.7508 30.4392 63.6857C30.6791 63.6205 30.9046 63.5058 31.1027 63.348L51.486 48.6563C51.6945 48.5106 51.8737 48.3222 52.0131 48.1022C52.1526 47.8822 52.2495 47.6349 52.2982 47.3748C52.347 47.1146 52.3466 46.8467 52.2971 46.5867C52.2476 46.3267 52.15 46.0798 52.01 45.8602C51.8699 45.6406 51.6902 45.4528 51.4813 45.3077C51.2724 45.1627 51.0384 45.0631 50.793 45.015C50.5476 44.9669 50.2956 44.971 50.0518 45.0273C49.8079 45.0836 49.577 45.1908 49.3724 45.3428L28.9892 60.0345C28.9389 60.0671 28.8902 60.1023 28.843 60.1398ZM35.1838 70.0804C34.9856 70.2381 34.8185 70.4358 34.6922 70.6621C34.5658 70.8885 34.4826 71.139 34.4474 71.3995C34.4122 71.6601 34.4255 71.9254 34.4868 72.1804C34.548 72.4354 34.6559 72.6751 34.8043 72.8858C34.9527 73.0965 35.1387 73.274 35.3516 73.4083C35.5646 73.5426 35.8003 73.6309 36.0454 73.6683C36.2905 73.7057 36.5401 73.6915 36.78 73.6263C37.0199 73.5612 37.2453 73.4464 37.4435 73.2886L57.705 58.6847C57.9135 58.539 58.0927 58.3506 58.2321 58.1306C58.3716 57.9106 58.4685 57.6633 58.5172 57.4032C58.566 57.143 58.5656 56.8751 58.5161 56.6151C58.4666 56.3551 58.369 56.1081 58.229 55.8886C58.0889 55.669 57.9092 55.4812 57.7003 55.3361C57.4914 55.191 57.2574 55.0915 57.012 55.0434C56.7666 54.9953 56.5146 54.9994 56.2708 55.0557C56.0269 55.112 55.796 55.2192 55.5914 55.3712L35.3299 69.9751C35.2797 70.0078 35.2309 70.0429 35.1838 70.0804Z" stroke="#878787" strokeWidth="2" mask="url(#path-1-inside-1_583_462)"/>
</svg>
