<svg width="98" height="103" viewBox="0 0 98 103" fill="none" xmlns="http://www.w3.org/2000/svg">
<path d="M58.7719 62.0728L59.0073 62.5283C58.7719 62.0728 58.7719 62.0728 58.7718 62.0729L58.7713 62.0732L58.7693 62.0742L58.7615 62.0782L58.7305 62.0943L58.6094 62.157L58.1467 62.3966L56.4712 63.2644L51.1711 66.0097C47.1722 68.0811 42.7754 70.3588 41.1838 71.1841C39.6187 71.9937 38.5737 72.1678 37.7656 71.8746C36.9562 71.581 36.2195 70.7593 35.4103 69.1193C34.5895 67.4517 33.8535 65.9572 33.3227 64.8796L32.6955 63.6064L32.5255 63.2614L32.4814 63.1718L32.4701 63.149L32.4673 63.1432L32.4666 63.1418L32.4664 63.1414L32.4664 63.1413L32.0291 63.3562L32.4663 63.1413C31.7275 61.6419 29.9813 61.0173 28.5707 61.7478L8.12533 72.337C8.05347 72.003 8.06118 71.6481 8.16538 71.3021L7.69446 71.1337L7.22354 70.9652C7.20875 71.0144 7.19524 71.0636 7.18301 71.113C7.04211 71.6814 7.06988 72.2629 7.23672 72.7972L7.20129 72.8155L7.42365 73.2638C7.42387 73.2642 7.42409 73.2647 7.42431 73.2651C7.42441 73.2653 7.42451 73.2655 7.42461 73.2657C7.42482 73.2661 7.42503 73.2666 7.42523 73.267C7.76643 73.9548 8.35646 74.5205 9.11732 74.7926L68.3804 95.9913C69.9087 96.5379 71.5167 95.6933 71.9872 94.1314L74.1253 87.0325L74.1842 86.8369L74.0917 86.6491L62.6675 63.4663C61.9286 61.9669 60.1825 61.3423 58.7719 62.0728ZM75.2314 80.3914L75.7864 81.5175L76.1396 80.3449L90.5057 32.6479C90.9761 31.086 90.1402 29.3672 88.6119 28.8205L29.3488 7.62191C27.8205 7.07524 26.2125 7.91984 25.742 9.48175L8.52268 66.6519L8.16952 67.8245L9.22892 67.2759L28.9399 57.0692L28.9404 57.0689C31.0357 55.9801 33.6174 56.9036 34.713 59.1337L34.7133 59.1344L38.7665 67.3557L38.9978 67.8248L39.4391 67.5962L59.1411 57.3941L59.1416 57.3938C61.2369 56.3051 63.8186 57.2285 64.9142 59.4587L64.9145 59.4593L75.2314 80.3914ZM42.0338 23.8148C46.6688 25.4728 49.2472 30.9207 47.7096 36.0256C46.172 41.1305 41.1326 43.8534 36.4977 42.1955C31.8627 40.5375 29.2843 35.0897 30.8219 29.9848C32.3594 24.8799 37.3989 22.1569 42.0338 23.8148ZM37.6653 38.3186C40.4152 39.3023 43.3191 37.6729 44.1941 34.768C45.069 31.8632 43.616 28.6753 40.8661 27.6917C38.1163 26.7081 35.2123 28.3375 34.3374 31.2423C33.4625 34.1471 34.9155 37.335 37.6653 38.3186ZM92.0273 25.8641C94.2782 26.6693 95.5453 29.2181 94.8348 31.577L74.8918 97.7899C74.1813 100.149 71.7746 101.383 69.5237 100.578L5.70194 77.7491C3.45105 76.9439 2.18396 74.3951 2.89443 72.0362L22.8374 5.82324C23.5479 3.4644 25.9546 2.22968 28.2055 3.03483L92.0273 25.8641Z" stroke="#878787"/>
</svg>
