<svg width="65" height="75" viewBox="0 0 65 75" fill="none" xmlns="http://www.w3.org/2000/svg">
<path d="M1.60206 17.4437C1.061 15.465 2.24828 13.3841 4.227 12.843L43.8132 2.01858C45.7919 1.47752 47.8728 2.6648 48.4139 4.64351L62.9709 57.8801C63.5119 59.8588 62.3246 61.9398 60.3459 62.4808L20.7598 73.3052C18.781 73.8463 16.7001 72.659 16.159 70.6803L1.60206 17.4437ZM44.2959 3.78407L4.70975 14.6085C3.66354 14.8946 3.08149 15.9148 3.36755 16.961L17.9245 70.1975C18.2106 71.2437 19.2308 71.8258 20.277 71.5397L59.8632 60.7153C60.9094 60.4292 61.4914 59.409 61.2054 58.3629L46.6484 5.12627C46.3623 4.08009 45.3421 3.49799 44.2959 3.78407ZM12.0318 23.3944C11.8985 22.9069 12.1857 22.4036 12.6732 22.2703L41.3391 14.4319C41.8266 14.2986 42.3299 14.5857 42.4632 15.0733C42.5965 15.5608 42.3094 16.0641 41.8218 16.1974L13.156 24.0358C12.6684 24.1691 12.1652 23.882 12.0318 23.3944ZM15.3911 35.6798C15.2578 35.1922 15.545 34.689 16.0325 34.5557L44.6984 26.7173C45.1859 26.584 45.6892 26.8711 45.8225 27.3587C45.9558 27.8462 45.6687 28.3495 45.1811 28.4828L16.5153 36.3212C16.0277 36.4545 15.5245 36.1673 15.3911 35.6798ZM18.7504 47.9652C18.6171 47.4776 18.9043 46.9743 19.3918 46.841L48.0577 39.0027C48.5452 38.8693 49.0485 39.1565 49.1818 39.644C49.3151 40.1316 49.028 40.6348 48.5404 40.7681L19.8746 48.6065C19.387 48.7398 18.8838 48.4527 18.7504 47.9652ZM22.1097 60.2505C21.9764 59.763 22.2636 59.2597 22.7511 59.1264L41.8617 53.9008C42.3492 53.7675 42.8525 54.0546 42.9858 54.5422C43.1191 55.0297 42.832 55.533 42.3444 55.6663L23.2339 60.8919C22.7463 61.0252 22.2431 60.7381 22.1097 60.2505Z" stroke="#878787"/>
</svg>
