<svg width="124" height="110" viewBox="0 0 124 110" fill="none" xmlns="http://www.w3.org/2000/svg">
<path d="M59.6054 91.5796L59.6053 91.5799L58.5896 93.9239L1.60117 69.2296L2.61678 66.8858C5.13707 61.0881 9.36458 56.1961 14.7358 52.8621C20.1072 49.528 26.3671 47.9102 32.6813 48.2244L33.5274 48.2665L33.1553 47.5054C31.6718 44.4711 31.154 41.0549 31.6716 37.7172C32.1893 34.3795 33.7176 31.2807 36.0505 28.8383C38.3835 26.3959 41.409 24.7272 44.7195 24.0572C48.0299 23.3871 51.4662 23.7478 54.5654 25.0907C57.6645 26.4337 60.2775 28.6943 62.0524 31.5679C63.8273 34.4416 64.6787 37.7902 64.492 41.1626C64.3052 44.535 63.0893 47.7692 61.008 50.4293C58.9266 53.0894 56.08 55.0477 52.8515 56.0402L52.0461 56.2878L52.6494 56.8761L53.0425 57.2595L53.3329 57.5427L53.6699 57.317C59.2401 53.5857 65.8672 51.7546 72.5629 52.0967L73.4108 52.14L73.0375 51.3775C71.5523 48.3433 71.0329 44.9266 71.5495 41.5881C72.0661 38.2496 73.5937 35.1497 75.9266 32.7062C78.2594 30.2628 81.2853 28.5932 84.5963 27.9227C87.9073 27.2521 91.3444 27.6127 94.4441 28.9559C97.5439 30.2991 100.157 32.5603 101.932 35.4347C103.707 38.3091 104.558 41.6586 104.371 45.0316C104.183 48.4047 102.966 51.6391 100.883 54.299C98.8005 56.9589 95.9524 58.9164 92.7228 59.9076L91.9127 60.1562L92.5221 60.7451C97.0692 65.1398 100.169 70.8158 101.409 77.0168C102.648 83.2178 101.968 89.6493 99.4601 95.4542L98.4446 97.7978L62.6575 82.2904L62.0354 82.0208L61.9616 82.6948C61.6267 85.7579 60.8323 88.7531 59.6054 91.5796ZM81.2903 59.2974L81.2883 59.2966C77.3992 57.6272 73.1612 56.9333 68.9428 57.2754C64.7244 57.6174 60.6535 58.985 57.0842 61.2592L56.6533 61.5337L56.9372 61.9586C59.7774 66.2096 61.5319 71.0922 62.0471 76.1786L62.0767 76.4704L62.3458 76.587L95.161 90.8066L95.6788 91.031L95.8392 90.4899C97.6411 84.4109 97.1563 77.8826 94.4761 72.1364C91.796 66.3903 87.1058 61.8235 81.2903 59.2974ZM37.5169 35.7343L37.5164 35.7353C36.3203 38.5127 36.2729 41.6509 37.3848 44.4631C38.4966 47.2754 40.6771 49.5327 43.4492 50.7413L43.4502 50.7417C45.5211 51.6391 47.8115 51.9022 50.0319 51.4978C52.2523 51.0934 54.3029 50.0397 55.9244 48.4699C57.5459 46.9 58.6655 44.8846 59.1416 42.6785C59.6177 40.4724 59.4289 38.1746 58.5991 36.0758C57.7693 33.977 56.3358 32.1713 54.4798 30.8872C52.6238 29.6031 50.4287 28.8982 48.1721 28.8617C45.9155 28.8251 43.6987 29.4585 41.8021 30.6818C39.9055 31.9052 38.4142 33.6634 37.5169 35.7343ZM8.71525 66.1327L8.42911 66.62L8.94761 66.8446L55.306 86.9328L55.8245 87.1574L55.9844 86.6154C57.7767 80.5388 57.2843 74.0165 54.6 68.2778C51.9156 62.5392 47.2247 57.9807 41.4116 55.4618C35.5984 52.9428 29.0646 52.6374 23.0418 54.603C17.019 56.5686 11.9233 60.6695 8.71525 66.1327ZM81.6638 34.5554C79.7679 35.7809 78.2781 37.5411 77.3829 39.6135C76.1836 42.3897 76.1353 45.5285 77.2488 48.3402C78.3623 51.152 80.5464 53.4068 83.3213 54.6092C85.3926 55.5068 87.6837 55.7698 89.9045 55.365C92.1254 54.9602 94.1763 53.9058 95.7978 52.3351C97.4192 50.7645 98.5384 48.7482 99.0137 46.5413C99.489 44.3345 99.299 42.0362 98.4679 39.9373C97.6367 37.8385 96.2017 36.0333 94.3443 34.7502C92.487 33.4671 90.2908 32.7637 88.0336 32.729C85.7764 32.6943 83.5597 33.3299 81.6638 34.5554Z" stroke="#878787"/>
</svg>
