<svg width="108" height="101" viewBox="0 0 108 101" fill="none" xmlns="http://www.w3.org/2000/svg">
<path d="M63.6203 55.9884L63.5026 55.4692L63.3916 54.9799C63.0126 53.3091 61.3469 52.2592 59.6798 52.6373L49.3783 54.9738C47.7101 55.3521 46.6598 57.0193 47.0385 58.689L47.1588 59.2197L47.276 59.736L46.7537 59.8234C34.4804 61.877 23.0287 61.8184 12.6957 59.6036L12.3828 59.5366L12.3127 59.2243L7.46392 37.6365C7.46388 37.6363 7.46384 37.6362 7.46381 37.636L7.46369 37.6355L7.95154 37.5259L63.6203 55.9884ZM63.6203 55.9884L64.1312 55.8383M63.6203 55.9884L64.1312 55.8383M64.1312 55.8383C76.294 52.2641 86.5684 47.1004 94.6574 40.4284L94.8955 40.232M64.1312 55.8383L94.8955 40.232M94.8955 40.232L94.8266 39.9311M94.8955 40.232L94.8266 39.9311M94.8266 39.9311L90.0137 18.9164M94.8266 39.9311L90.0137 18.9164M90.0137 18.9164L90.0134 18.9154L90.0137 18.9164ZM92.8893 18.2611L92.8895 18.2622L97.9709 40.4515L97.971 40.4518C98.0935 40.9854 97.9096 41.5436 97.4928 41.9007C96.5903 42.6733 95.6529 43.4237 94.693 44.1624L94.4396 44.3574L94.5103 44.6692L101.651 76.1534C102.19 78.5269 100.696 80.8963 98.3228 81.4347L26.9367 97.6258C24.5633 98.1641 22.1936 96.6699 21.6555 94.2973L14.6199 63.2773L14.547 62.956L14.2231 62.8962C13.0693 62.6831 11.929 62.4668 10.8124 62.2073C10.2618 62.0789 9.83202 61.6462 9.70726 61.0932C9.70724 61.0931 9.70722 61.093 9.70721 61.093L4.58487 38.2855L4.58464 38.2845C4.04731 35.9154 5.5411 33.5463 7.91612 33.0076L32.8858 27.3443L33.3734 27.2337L33.2628 26.746L31.801 20.3009C31.0344 16.9209 33.1614 13.546 36.5414 12.7794L53.0549 9.03398C56.4349 8.26737 59.8098 10.3944 60.5764 13.7743L62.0382 20.2195L62.1488 20.7071L62.6364 20.5965L87.6081 14.9327C89.9815 14.3944 92.3509 15.8877 92.8893 18.2611ZM58.784 21.4703L59.2716 21.3597L59.161 20.8721L57.6992 14.4269C57.298 12.658 55.4764 11.51 53.7075 11.9112L37.1939 15.6567C35.4001 16.0635 34.2711 17.8533 34.6782 19.6483L36.1401 26.0935L36.2507 26.5811L36.7383 26.4705L58.784 21.4703ZM18.3966 63.5465L17.6863 63.4545L17.8447 64.153L24.5337 93.6445C24.7103 94.4233 25.5063 94.9249 26.2851 94.7483L97.6712 78.5572C98.4413 78.3825 98.9497 77.5759 98.775 76.8058L92.0051 46.962L91.8429 46.2469L91.2365 46.659C83.7702 51.7325 74.8918 55.7886 64.7278 58.7524L64.2761 58.8842L64.3802 59.3431L64.9929 62.0446C65.3712 63.7125 64.3217 65.3793 62.6546 65.7574L52.3541 68.0937C50.6856 68.4721 49.0192 67.4219 48.6408 65.7534L48.0346 63.0808L47.93 62.6195L47.4635 62.6984C37.1616 64.442 27.4246 64.7167 18.3966 63.5465ZM51.4413 64.7628L51.5519 65.2504L52.0395 65.1398L61.663 62.9571L62.1506 62.8465L62.04 62.3589L60.5904 55.9677L60.4798 55.4801L59.9922 55.5907L50.3687 57.7734L49.8811 57.884L49.9917 58.3716L51.4413 64.7628Z" stroke="#878787"/>
</svg>
