<svg width="135" height="131" viewBox="0 0 135 131" fill="none" xmlns="http://www.w3.org/2000/svg">
<path d="M99.3054 22.5303L99.7611 22.3245L99.5553 21.8688L97.4239 17.1478C94.5839 10.8577 87.1166 8.03575 80.8264 10.8757L17.1477 39.6257C10.8576 42.4656 8.03566 49.9329 10.8756 56.2231L13.007 60.9441L13.2128 61.3998L13.6685 61.1941L99.3054 22.5303ZM15.2398 64.6743L14.7841 64.88L14.9898 65.3357L38.6342 117.706C40.3836 121.581 44.9825 123.319 48.8572 121.569L121.319 88.8537C125.194 87.1043 126.932 82.5055 125.182 78.6307L101.538 26.2605L101.332 25.8048L100.877 26.0105L15.2398 64.6743ZM15.5765 36.1454L79.2552 7.39546C87.4574 3.69228 97.2009 7.37435 100.904 15.5766L128.663 77.0594C131.275 82.8463 128.677 89.7213 122.89 92.334L50.4285 125.049C44.6417 127.662 37.7666 125.064 35.154 119.277L7.39536 57.7944C3.69218 49.5922 7.37425 39.8486 15.5765 36.1454Z" stroke="#878787"/>
<path d="M52.188 69.4724L43.2377 87.0471L42.9532 87.6056L43.561 87.7588L62.6103 92.5604L61.6544 96.2336L39.7468 90.6244L39.5337 90.5439L39.3252 90.4651C38.3537 89.9368 38.0045 88.8735 38.5015 87.9318L38.5016 87.9318L38.5047 87.9257L48.7986 67.7591L52.188 69.4724Z" stroke="#878787"/>
<path d="M89.7423 80.4398L98.6926 62.8651L98.9757 62.3093L98.3715 62.154L79.2699 57.2443L80.2258 53.5708L102.182 59.2875L102.605 59.4472C103.577 59.9754 103.926 61.0387 103.429 61.9804L103.429 61.9804L103.426 61.9865L93.1317 82.1532L89.7423 80.4398Z" stroke="#878787"/>
<path d="M64.0923 50.7468L67.8536 50.0876L76.6225 100.126L72.8612 100.785L64.0923 50.7468Z" stroke="#878787"/>
</svg>
