<svg width="132" height="132" viewBox="0 0 132 132" fill="none" xmlns="http://www.w3.org/2000/svg">
<path d="M1.5738 74.6432L1.57552 74.5988L1.56937 74.5547C0.539873 67.1842 0.803472 59.6906 2.34833 52.4107C3.93392 45.1502 6.74333 38.2126 10.6561 31.895C10.8367 31.7568 10.9381 31.5731 10.9902 31.461C11.0267 31.3821 11.0516 31.3104 11.0675 31.2583C11.0677 31.2578 11.0678 31.2574 11.0679 31.2569C18.1881 19.9829 28.5893 11.1582 40.874 5.96988C53.1813 0.772063 66.7867 -0.525803 79.8547 2.25137C92.9093 5.06395 104.787 11.8138 113.884 21.5898C122.968 31.3516 128.844 43.6616 130.72 56.8626C130.707 56.9815 130.68 57.0985 130.64 57.2114L130.599 57.3268L130.616 57.4481C132.704 72.345 129.463 87.5008 121.463 100.24L121.399 100.342L121.389 100.461C121.377 100.596 121.35 100.73 121.31 100.859C114.192 112.128 103.795 120.948 91.5155 126.132C79.2173 131.324 65.6227 132.619 52.5652 129.844C39.5111 127.031 27.6321 120.286 18.5276 110.518C9.42288 100.749 3.52984 88.4249 1.64185 75.2052L1.63764 75.1757L1.62997 75.147C1.58617 74.9828 1.56723 74.813 1.5738 74.6432ZM116.387 94.283L116.748 94.3603L116.928 94.0373C119.689 89.0801 121.697 83.7394 122.886 78.1909L122.886 78.1905C124.07 72.6413 124.423 66.9467 123.932 61.2937L123.9 60.9254L123.538 60.8481L103.536 56.5701L102.974 56.4499L102.933 57.0231C102.137 68.0651 99.8102 78.9431 96.0201 89.3449L95.8233 89.8848L96.3853 90.005L116.387 94.283ZM88.1899 88.2521L88.6112 88.3422L88.7626 87.9389C90.7234 82.7154 92.2972 77.3547 93.4714 71.9002L93.4717 71.8988C94.6295 66.441 95.3861 60.9058 95.7354 55.3375L95.7624 54.9074L95.341 54.8172L73.8382 50.2182L73.3493 50.1136L73.2447 50.6026L66.3028 83.0596L66.1982 83.5485L66.6871 83.6531L88.1899 88.2521ZM37.126 84.7933L36.6371 84.6888L36.5325 85.1777L36.5239 85.2183L36.5117 85.2752L36.5129 85.3335C36.6938 93.8566 38.013 101.514 40.3098 107.665C42.6039 113.809 45.8922 118.498 50.0451 121.008L50.6458 121.371L50.7927 120.685L57.4309 89.6475L57.5355 89.1585L57.0465 89.054L37.126 84.7933ZM65.1521 90.83L64.6632 90.7255L64.5586 91.2144L57.929 122.211L57.9203 122.251L57.7729 122.941L58.4723 122.852C63.2921 122.24 68.2021 119.294 72.8044 114.62C77.4121 109.941 81.7478 103.493 85.4193 95.7948L85.692 95.2231L85.0726 95.0907L65.1521 90.83ZM75.0062 42.3666L74.9019 42.8545L75.3896 42.9599L95.3014 47.2611L95.9161 47.3939L95.9069 46.7651C95.7828 38.2733 94.47 30.5845 92.1632 24.4043C89.8596 18.2327 86.5447 13.5145 82.3798 11.0447L81.7813 10.6898L81.6358 11.3701L75.0062 42.3666ZM67.2764 41.2246L67.7653 41.3292L67.8699 40.8402L74.4243 10.1952L74.4994 9.8438L74.5081 9.80323L74.0192 9.69866L74.0055 9.69574L73.9537 9.24247C69.1423 9.7926 64.2199 12.739 59.6062 17.42C54.9861 22.1073 50.6359 28.5728 46.9687 36.2509L46.6955 36.8228L47.3153 36.9553L67.2764 41.2246ZM66.1344 48.9545L66.239 48.4656L65.75 48.361L44.2067 43.7533L43.7834 43.6627L43.6332 44.0687C39.7576 54.5437 37.4096 65.5219 36.6613 76.6657L36.6323 77.0976L37.0556 77.1882L58.5989 81.7959L59.0878 81.9005L59.1924 81.4115L66.1344 48.9545ZM8.54605 70.7281L8.57747 71.0972L8.93967 71.1747L28.9007 75.444L28.9819 75.4613L29.5438 75.5815L29.5852 75.0084C30.3815 63.9663 32.7081 53.0884 36.4982 42.6866L36.6949 42.1466L36.133 42.0264L16.0908 37.7398L15.7286 37.6623L15.5489 37.9862C10.0163 47.9631 7.57851 59.361 8.54605 70.7281ZM10.5779 78.9879L10.089 78.8833L9.98438 79.3723L9.94967 79.5345L9.92588 79.6458L9.95254 79.7563C13.3783 93.9659 22.0353 106.362 34.1965 114.471L35.591 115.4L34.9339 113.859C30.832 104.234 28.8587 93.8365 29.149 83.3782L29.1606 82.9624L28.7538 82.8754L10.5779 78.9879ZM75.1533 122.459L73.917 123.594L75.5729 123.321C89.956 120.945 102.914 113.233 111.862 101.724L112.351 101.095L111.571 100.928L93.3956 97.0405L92.9907 96.9539L92.8301 97.3355C88.8131 106.884 82.7838 115.453 75.1533 122.459ZM121.877 52.945L122.657 53.112L122.467 52.3367C118.983 38.1738 110.302 25.8382 98.1469 17.7775L96.7489 16.8504L97.4112 18.3916C101.501 27.9084 103.497 38.193 103.265 48.5487L103.256 48.9623L103.66 49.0489L121.877 52.945ZM57.1922 9.78874L58.4223 8.65343L56.771 8.92809C42.394 11.3195 29.4414 19.0282 20.4832 30.5246L19.9928 31.1539L20.773 31.3208L38.9489 35.2083L39.3528 35.2947L39.5139 34.9145C43.5548 25.3784 49.5814 16.813 57.1922 9.78874Z" stroke="#878787"/>
</svg>
