<svg width="128" height="115" viewBox="0 0 128 115" fill="none" xmlns="http://www.w3.org/2000/svg">
<path d="M93.6211 104.301L97.6413 85.8056L103.795 87.1433C107.472 87.9425 111.132 85.5888 111.934 81.8995L119.098 48.9412C119.9 45.2518 117.547 41.5912 113.871 40.792L90.2379 35.6551L90.7003 33.5279L114.333 38.6649C119.188 39.7202 122.284 44.5348 121.225 49.4035L114.061 82.3619C113.003 87.2307 108.188 90.3258 103.333 89.2705L99.5504 88.4482L99.3061 88.3951L99.253 88.6394L94.3735 111.087L79.5414 84.1865L79.4866 84.087L79.3756 84.0629L49.0464 77.4704C44.1783 76.4122 41.0958 71.6007 42.1541 66.7317L43.4131 60.9397L45.5403 61.4021L44.2813 67.1941C43.4794 70.8834 45.8322 74.5441 49.5088 75.3432L80.9208 82.1711L93.1578 104.368L93.4795 104.952L93.6211 104.301Z" stroke="#878787" stroke-width="0.5"/>
<path d="M46.7853 32.7626L46.7853 32.7626L46.7859 32.7597C47.223 30.7491 49.2294 29.4477 51.2668 29.8905C53.2928 30.3309 54.5918 32.339 54.1523 34.3609C53.7122 36.3859 51.7049 37.6861 49.6685 37.2435C47.6296 36.8003 46.3344 34.7801 46.7853 32.7626Z" stroke="#878787"/>
<path d="M61.2209 35.8998L61.2209 35.8998L61.2215 35.8969C61.6585 33.8864 63.665 32.5849 65.7024 33.0277C67.7284 33.4681 69.0274 35.4762 68.5879 37.4981C68.1477 39.5231 66.1404 40.8233 64.1041 40.3807C62.0651 39.9375 60.7699 37.9173 61.2209 35.8998Z" stroke="#878787"/>
<path d="M39.7069 31.2203C39.2668 33.2452 37.2595 34.5455 35.2231 34.1028C33.1992 33.6629 31.9006 31.643 32.3406 29.6191C32.7776 27.6085 34.7841 26.307 36.8214 26.7499C38.8474 27.1903 40.1464 29.1983 39.7069 31.2203Z" stroke="#878787"/>
<path d="M21.8143 53.9243L21.8674 53.68L21.6231 53.6269L17.8537 52.8075C12.9847 51.7492 9.88991 46.934 10.9422 42.0928L18.1092 9.12101C19.1674 4.25249 23.9822 1.1571 28.8507 2.21535L83.1241 14.0125C87.9921 15.0707 91.0747 19.8822 90.0163 24.7512L88.2785 32.746L87.7099 35.3617L82.8523 57.7095C81.7969 62.5649 76.9953 65.6629 72.127 64.6047L46.2915 58.9889L43.6758 58.4204L41.7978 58.0122L41.6869 57.988L41.5957 58.0558L16.9349 76.3722L21.8143 53.9243ZM18.3161 50.6804L24.4569 52.0152L20.4367 70.5103L20.2954 71.1603L20.8298 70.7643L41.2011 55.6688L72.5999 62.4939C76.2761 63.293 79.9365 60.9397 80.7356 57.2635L87.9026 24.2917C88.7045 20.6024 86.3517 16.9418 82.6751 16.1426L28.3884 4.3425C24.6987 3.5405 21.0383 5.89373 20.2363 9.58338L13.0723 42.5417C12.2731 46.2183 14.6268 49.8784 18.3161 50.6804Z" stroke="#878787" stroke-width="0.5"/>
</svg>
