<svg width="124" height="120" viewBox="0 0 124 120" fill="none" xmlns="http://www.w3.org/2000/svg">
<path d="M95.4242 9.20028L95.3011 8.71569L94.8165 8.83884L9.02287 30.6432L8.53828 30.7663L8.66144 31.2509L12.1973 45.1634L12.3204 45.648L12.805 45.5248L98.5986 23.7205L99.0832 23.5973L98.96 23.1128L95.4242 9.20028ZM28.9925 111.248L29.1157 111.732L29.6003 111.609L115.394 89.8047L115.878 89.6816L115.755 89.197L100.728 30.069L100.605 29.5844L100.12 29.7076L14.3266 51.5119L13.842 51.635L13.9652 52.1196L28.9925 111.248ZM4.02315 25.5401L96.773 1.96784C98.4763 1.53495 100.094 2.49726 100.527 4.20056L122.626 91.1535C123.059 92.8568 122.097 94.475 120.394 94.9078L27.6437 118.48C25.9404 118.913 24.3223 117.951 23.8894 116.247L1.79043 29.2944C1.35754 27.5911 2.31985 25.973 4.02315 25.5401Z" stroke="#878787"/>
<path d="M34.6608 32.0491C35.2274 34.2786 33.8794 36.5454 31.6498 37.112C29.4203 37.6786 27.1535 36.3306 26.5869 34.101C26.0202 31.8715 27.3683 29.6047 29.5978 29.0381C31.8274 28.4714 34.0941 29.8195 34.6608 32.0491Z" stroke="#878787"/>
<path d="M46.2545 29.1023C46.8212 31.3318 45.4731 33.5986 43.2436 34.1652C41.014 34.7319 38.7473 33.3838 38.1806 31.1543C37.614 28.9247 38.962 26.6579 41.1916 26.0913C43.4211 25.5247 45.6879 26.8727 46.2545 29.1023Z" stroke="#878787"/>
<path d="M23.0709 34.9953C23.6376 37.2249 22.2895 39.4917 20.06 40.0583C17.8304 40.6249 15.5637 39.2769 14.997 37.0473C14.4304 34.8178 15.7784 32.551 18.008 31.9844C20.2375 31.4177 22.5043 32.7658 23.0709 34.9953Z" stroke="#878787"/>
<path d="M30.7419 62.1954L90.7974 46.9323C92.5007 46.4994 94.1188 47.4618 94.5517 49.1651C94.9846 50.8684 94.0223 52.4865 92.319 52.9194L32.2635 68.1824C30.5602 68.6153 28.9421 67.653 28.5092 65.9497C28.0763 64.2464 29.0386 62.6283 30.7419 62.1954Z" stroke="#878787"/>
<path d="M34.281 76.108L94.3365 60.8449C96.0398 60.412 97.6579 61.3744 98.0908 63.0777C98.5237 64.7809 97.5614 66.3991 95.8581 66.832L35.8026 82.095C34.0993 82.5279 32.4811 81.5656 32.0482 79.8623C31.6153 78.159 32.5777 76.5409 34.281 76.108Z" stroke="#878787"/>
<path d="M37.8122 90.0201L97.8677 74.757C99.571 74.3241 101.189 75.2865 101.622 76.9898C102.055 78.6931 101.093 80.3112 99.3893 80.7441L39.3338 96.0071C37.6305 96.44 36.0124 95.4777 35.5795 93.7744C35.1466 92.0711 36.1089 90.453 37.8122 90.0201Z" stroke="#878787"/>
</svg>
