<svg width="90" height="86" viewBox="0 0 90 86" fill="none" xmlns="http://www.w3.org/2000/svg">
<mask id="path-1-inside-1_640_1652" fill="white">
<path d="M68.0145 31.5007L81.8293 38.0798C83.1893 38.7269 84.2156 39.8664 84.7186 41.2845C85.2215 42.7042 85.1394 44.2293 84.4859 45.5794L83.9625 46.6629L86.087 47.6751C87.7429 48.4631 88.9917 49.8488 89.604 51.5777C90.2164 53.3065 90.1155 55.1627 89.3218 56.8067C88.5281 58.4506 87.1322 59.6903 85.3908 60.2983C84.6382 60.5616 83.8633 60.6923 83.0901 60.6923C82.074 60.6923 81.0647 60.4665 80.1256 60.0198L78.001 59.0076L77.4776 60.0911C76.8258 61.4413 75.678 62.4602 74.2496 62.9595C73.6321 63.1752 72.9941 63.2822 72.3594 63.2822C71.5246 63.2822 70.695 63.0971 69.9235 62.7285L64.7113 60.2457L54.4083 81.5692C53.5034 83.4441 51.9108 84.8588 49.9248 85.5517C49.0661 85.8506 48.1817 86 47.299 86C46.141 86 44.9897 85.7436 43.9172 85.2324C40.0067 83.3711 38.3526 78.6991 40.2274 74.8169L49.8803 54.8316L23.5182 49.2663C22.6954 50.5129 21.4928 51.4605 20.0474 51.9649C19.2947 52.2264 18.5181 52.3572 17.7466 52.3572C16.7322 52.3572 15.7229 52.1313 14.7821 51.6847L10.3722 49.5839C9.89491 49.3563 9.52713 48.9488 9.35094 48.4529C9.17474 47.957 9.20554 47.4101 9.43475 46.9363L15.7674 33.8307C11.4995 30.7586 9.9103 24.9929 12.2692 20.1104C13.5556 17.4492 15.8085 15.4435 18.6122 14.4653C20.7778 13.7096 23.07 13.6383 25.2373 14.2293L31.5683 1.12707C32.0456 0.138674 33.2413 -0.279101 34.2351 0.196415L38.6451 2.29718C40.2992 3.08518 41.548 4.47097 42.1604 6.19811C42.6684 7.63485 42.677 9.15821 42.2134 10.5746L68.0145 31.5007ZM25.3656 45.5964L55.6331 51.987L64.4513 33.7373L40.4857 14.3006L25.3656 45.5964ZM81.8533 56.4364C82.5461 56.7659 83.3295 56.8067 84.0634 56.5502C84.7955 56.2938 85.3823 55.7758 85.7141 55.088C86.046 54.4002 86.087 53.6224 85.8287 52.8939C85.5704 52.1653 85.047 51.5845 84.3559 51.2533L82.2313 50.2411L79.727 55.4243L81.8533 56.4364ZM71.6512 59.1452C72.0481 59.3337 72.4997 59.3575 72.9205 59.2097C73.343 59.062 73.68 58.7648 73.8699 58.3708L80.88 43.8624C81.0698 43.4684 81.0938 43.0201 80.945 42.6023C80.7961 42.1828 80.4968 41.8483 80.0999 41.6598L67.8725 35.8364L59.4238 53.3218L71.6512 59.1452ZM43.8316 76.5287C42.9096 78.4359 43.7239 80.7337 45.6449 81.6473C46.5703 82.0872 47.6189 82.1415 48.5957 81.8002C49.5741 81.4588 50.3576 80.7642 50.8006 79.8472L61.1036 58.5236L56.1069 56.1443L53.9054 55.679L43.8316 76.5287ZM19.9379 18.2117C18.14 18.8384 16.698 20.124 15.8735 21.829C14.4725 24.728 15.2474 28.1092 17.5413 30.1557L23.46 17.9043C22.2934 17.7107 21.0874 17.8092 19.9379 18.2117ZM36.9156 5.87544L34.3087 4.63401L13.9063 46.8633L16.5132 48.1047C17.2043 48.4342 17.9895 48.4749 18.7216 48.2185C19.4538 47.9638 20.0388 47.4441 20.3707 46.758L38.2722 9.70505C38.9615 8.2785 38.3526 6.55985 36.9156 5.87544ZM68.7415 45.1871L73.7091 47.5528C73.9879 47.6852 74.2821 47.7481 74.5729 47.7481C75.3188 47.7481 76.0338 47.332 76.3776 46.6204C76.8549 45.632 76.4358 44.4466 75.4402 43.9728L70.4726 41.6071C69.477 41.1333 68.283 41.5494 67.8058 42.5378C67.3268 43.5279 67.7459 44.7133 68.7415 45.1871ZM65.5854 51.722L70.553 54.0877C70.8319 54.2202 71.1261 54.283 71.4169 54.283C72.161 54.283 72.8777 53.867 73.2216 53.1554C73.6988 52.167 73.2797 50.9816 72.2842 50.5078L67.3166 48.1421C66.321 47.6683 65.127 48.0843 64.6497 49.0727C64.169 50.0611 64.5898 51.2482 65.5854 51.722ZM18.7764 8.94932L17.0504 4.07357C16.6843 3.03933 15.5433 2.49588 14.5016 2.85931C13.4598 3.22274 12.9124 4.35549 13.2785 5.38974L15.0045 10.2655C15.2936 11.0824 16.0651 11.5918 16.8913 11.5918C17.112 11.5918 17.3343 11.5562 17.555 11.4797C18.5951 11.118 19.1442 9.98357 18.7764 8.94932ZM9.39541 18.7433C9.87267 17.7549 9.45358 16.5695 8.458 16.0957L3.7641 13.8607C2.76853 13.3869 1.57452 13.803 1.09726 14.7914C0.619995 15.7798 1.0391 16.9652 2.03468 17.439L6.72858 19.6739C7.00741 19.8064 7.30163 19.8692 7.59243 19.8692C8.33655 19.8692 9.05158 19.4548 9.39541 18.7433ZM1.33674 30.1064C0.294983 30.4698 -0.252411 31.6026 0.113663 32.6368C0.402756 33.4537 1.17423 33.9632 2.00046 33.9632C2.22112 33.9632 2.4435 33.9275 2.66417 33.8511L7.57533 32.1359C8.61709 31.7724 9.16448 30.6397 8.79841 29.6054C8.43234 28.5712 7.29137 28.0277 6.2496 28.3912L1.33674 30.1064Z"/>
</mask>
<path d="M68.0145 31.5007L81.8293 38.0798C83.1893 38.7269 84.2156 39.8664 84.7186 41.2845C85.2215 42.7042 85.1394 44.2293 84.4859 45.5794L83.9625 46.6629L86.087 47.6751C87.7429 48.4631 88.9917 49.8488 89.604 51.5777C90.2164 53.3065 90.1155 55.1627 89.3218 56.8067C88.5281 58.4506 87.1322 59.6903 85.3908 60.2983C84.6382 60.5616 83.8633 60.6923 83.0901 60.6923C82.074 60.6923 81.0647 60.4665 80.1256 60.0198L78.001 59.0076L77.4776 60.0911C76.8258 61.4413 75.678 62.4602 74.2496 62.9595C73.6321 63.1752 72.9941 63.2822 72.3594 63.2822C71.5246 63.2822 70.695 63.0971 69.9235 62.7285L64.7113 60.2457L54.4083 81.5692C53.5034 83.4441 51.9108 84.8588 49.9248 85.5517C49.0661 85.8506 48.1817 86 47.299 86C46.141 86 44.9897 85.7436 43.9172 85.2324C40.0067 83.3711 38.3526 78.6991 40.2274 74.8169L49.8803 54.8316L23.5182 49.2663C22.6954 50.5129 21.4928 51.4605 20.0474 51.9649C19.2947 52.2264 18.5181 52.3572 17.7466 52.3572C16.7322 52.3572 15.7229 52.1313 14.7821 51.6847L10.3722 49.5839C9.89491 49.3563 9.52713 48.9488 9.35094 48.4529C9.17474 47.957 9.20554 47.4101 9.43475 46.9363L15.7674 33.8307C11.4995 30.7586 9.9103 24.9929 12.2692 20.1104C13.5556 17.4492 15.8085 15.4435 18.6122 14.4653C20.7778 13.7096 23.07 13.6383 25.2373 14.2293L31.5683 1.12707C32.0456 0.138674 33.2413 -0.279101 34.2351 0.196415L38.6451 2.29718C40.2992 3.08518 41.548 4.47097 42.1604 6.19811C42.6684 7.63485 42.677 9.15821 42.2134 10.5746L68.0145 31.5007ZM25.3656 45.5964L55.6331 51.987L64.4513 33.7373L40.4857 14.3006L25.3656 45.5964ZM81.8533 56.4364C82.5461 56.7659 83.3295 56.8067 84.0634 56.5502C84.7955 56.2938 85.3823 55.7758 85.7141 55.088C86.046 54.4002 86.087 53.6224 85.8287 52.8939C85.5704 52.1653 85.047 51.5845 84.3559 51.2533L82.2313 50.2411L79.727 55.4243L81.8533 56.4364ZM71.6512 59.1452C72.0481 59.3337 72.4997 59.3575 72.9205 59.2097C73.343 59.062 73.68 58.7648 73.8699 58.3708L80.88 43.8624C81.0698 43.4684 81.0938 43.0201 80.945 42.6023C80.7961 42.1828 80.4968 41.8483 80.0999 41.6598L67.8725 35.8364L59.4238 53.3218L71.6512 59.1452ZM43.8316 76.5287C42.9096 78.4359 43.7239 80.7337 45.6449 81.6473C46.5703 82.0872 47.6189 82.1415 48.5957 81.8002C49.5741 81.4588 50.3576 80.7642 50.8006 79.8472L61.1036 58.5236L56.1069 56.1443L53.9054 55.679L43.8316 76.5287ZM19.9379 18.2117C18.14 18.8384 16.698 20.124 15.8735 21.829C14.4725 24.728 15.2474 28.1092 17.5413 30.1557L23.46 17.9043C22.2934 17.7107 21.0874 17.8092 19.9379 18.2117ZM36.9156 5.87544L34.3087 4.63401L13.9063 46.8633L16.5132 48.1047C17.2043 48.4342 17.9895 48.4749 18.7216 48.2185C19.4538 47.9638 20.0388 47.4441 20.3707 46.758L38.2722 9.70505C38.9615 8.2785 38.3526 6.55985 36.9156 5.87544ZM68.7415 45.1871L73.7091 47.5528C73.9879 47.6852 74.2821 47.7481 74.5729 47.7481C75.3188 47.7481 76.0338 47.332 76.3776 46.6204C76.8549 45.632 76.4358 44.4466 75.4402 43.9728L70.4726 41.6071C69.477 41.1333 68.283 41.5494 67.8058 42.5378C67.3268 43.5279 67.7459 44.7133 68.7415 45.1871ZM65.5854 51.722L70.553 54.0877C70.8319 54.2202 71.1261 54.283 71.4169 54.283C72.161 54.283 72.8777 53.867 73.2216 53.1554C73.6988 52.167 73.2797 50.9816 72.2842 50.5078L67.3166 48.1421C66.321 47.6683 65.127 48.0843 64.6497 49.0727C64.169 50.0611 64.5898 51.2482 65.5854 51.722ZM18.7764 8.94932L17.0504 4.07357C16.6843 3.03933 15.5433 2.49588 14.5016 2.85931C13.4598 3.22274 12.9124 4.35549 13.2785 5.38974L15.0045 10.2655C15.2936 11.0824 16.0651 11.5918 16.8913 11.5918C17.112 11.5918 17.3343 11.5562 17.555 11.4797C18.5951 11.118 19.1442 9.98357 18.7764 8.94932ZM9.39541 18.7433C9.87267 17.7549 9.45358 16.5695 8.458 16.0957L3.7641 13.8607C2.76853 13.3869 1.57452 13.803 1.09726 14.7914C0.619995 15.7798 1.0391 16.9652 2.03468 17.439L6.72858 19.6739C7.00741 19.8064 7.30163 19.8692 7.59243 19.8692C8.33655 19.8692 9.05158 19.4548 9.39541 18.7433ZM1.33674 30.1064C0.294983 30.4698 -0.252411 31.6026 0.113663 32.6368C0.402756 33.4537 1.17423 33.9632 2.00046 33.9632C2.22112 33.9632 2.4435 33.9275 2.66417 33.8511L7.57533 32.1359C8.61709 31.7724 9.16448 30.6397 8.79841 29.6054C8.43234 28.5712 7.29137 28.0277 6.2496 28.3912L1.33674 30.1064Z" stroke="#878787" stroke-width="2" mask="url(#path-1-inside-1_640_1652)"/>
</svg>
