<svg width="81" height="102" viewBox="0 0 81 102" fill="none" xmlns="http://www.w3.org/2000/svg">
<path d="M35.8621 9.22291L35.8304 8.5833L35.2176 8.76915L21.7908 12.841L21.1779 13.0269L21.5069 13.5763L23.081 16.2057L23.2815 16.5407L23.6551 16.4274L35.6594 12.7869L36.033 12.6736L36.0137 12.2837L35.8621 9.22291ZM76.1763 79.2008L76.1761 79.2002L74.8819 74.9325L74.7368 74.454L74.2583 74.5992L25.8912 89.2671L25.4127 89.4122L25.5578 89.8907L26.8521 94.1584L26.8522 94.1589C27.2352 95.4167 28.1015 96.4711 29.2609 97.091C30.4204 97.7108 31.7784 97.8455 33.037 97.4654L33.0376 97.4652L72.8693 85.3857L72.8698 85.3855C74.1275 85.0025 75.182 84.1363 75.8018 82.9768C76.4217 81.8174 76.5564 80.4594 76.1763 79.2008ZM73.6857 72.711L74.1641 72.5659L74.019 72.0874L54.6056 8.07216L54.6054 8.0716C54.2224 6.81388 53.3561 5.75944 52.1967 5.13958C51.0372 4.51973 49.6792 4.38507 48.4206 4.76516L48.42 4.76533L38.1502 7.8798L37.7766 7.99309L37.7959 8.383L38.0416 13.3454L38.541 13.3206L38.0416 13.3454C38.0525 13.5651 37.9896 13.7822 37.863 13.9621C37.7363 14.142 37.5532 14.2744 37.3426 14.3383L23.117 18.6524C22.9065 18.7162 22.6806 18.7079 22.4754 18.6286C22.2702 18.5494 22.0973 18.4038 21.9843 18.215L21.9843 18.215L19.4323 13.952L19.2317 13.6171L18.8582 13.7304L8.58833 16.8448L8.58778 16.845C7.33006 17.228 6.27561 18.0943 5.65576 19.2537C5.0359 20.4132 4.90125 21.7712 5.28134 23.0298L5.28151 23.0303L24.695 87.0456L24.8401 87.5241L25.3186 87.379L73.6857 72.711ZM3.91688 18.3241C4.78347 16.7031 6.25764 15.4921 8.01599 14.9566L47.8472 2.87725C49.6068 2.34587 51.5053 2.53412 53.1263 3.40071C54.7473 4.26734 55.9584 5.74162 56.4939 7.50009L78.0641 78.6271C78.5956 80.3867 78.4074 82.2854 77.5407 83.9064C76.6741 85.5275 75.1998 86.7386 73.4413 87.274L33.6107 99.3532C31.851 99.8847 29.9524 99.6965 28.3313 98.8298C26.7104 97.9633 25.4993 96.4891 24.9638 94.7307L3.39343 23.6032C2.86204 21.8436 3.05029 19.9451 3.91688 18.3241Z" stroke="#878787"/>
<path d="M50.8564 87.9095L50.2837 86.0214L52.1719 85.4488L52.7445 87.3369L50.8564 87.9095Z" stroke="#878787"/>
<path d="M46.3041 59.2657L46.7826 59.1206L46.6375 58.6421L44.9118 52.9519L44.7667 52.4734L44.2882 52.6185L38.598 54.3442L38.1195 54.4893L38.2646 54.9677L39.9903 60.658L40.1354 61.1365L40.6138 60.9914L46.3041 59.2657ZM36.6028 52.8874L45.1382 50.2989C45.3886 50.223 45.6589 50.2496 45.8896 50.373C46.1204 50.4964 46.2926 50.7063 46.3686 50.9567L48.957 59.4921C49.033 59.7425 49.0063 60.0128 48.883 60.2435C48.7596 60.4742 48.5497 60.6465 48.2993 60.7225L39.7639 63.3109C39.5135 63.3869 39.2432 63.3602 39.0125 63.2369C38.7817 63.1135 38.6094 62.9035 38.5335 62.6532L35.945 54.1178C35.8691 53.8674 35.8958 53.5971 36.0191 53.3664C36.1425 53.1356 36.3524 52.9633 36.6028 52.8874Z" stroke="#878787"/>
<path d="M32.0775 63.5802L32.556 63.4351L32.4109 62.9566L30.6853 57.2663L30.5402 56.7879L30.0617 56.933L24.3714 58.6586L23.893 58.8037L24.0381 59.2822L25.7637 64.9724L25.9088 65.4509L26.3873 65.3058L32.0775 63.5802ZM22.3763 57.2019L30.9116 54.6134C31.162 54.5375 31.4323 54.5641 31.663 54.6875C31.8938 54.8108 32.0661 55.0208 32.142 55.2712L34.7305 63.8065C34.8064 64.0569 34.7798 64.3272 34.6564 64.558C34.5331 64.7887 34.3231 64.961 34.0727 65.0369L25.5373 67.6254C25.2869 67.7013 25.0167 67.6747 24.7859 67.5513C24.5552 67.428 24.3829 67.218 24.307 66.9676L21.7185 58.4322C21.6426 58.1819 21.6692 57.9116 21.7926 57.6808C21.9159 57.4501 22.1259 57.2778 22.3763 57.2019Z" stroke="#878787"/>
<path d="M56.2221 40.7271L56.7005 40.582L56.5554 40.1036L54.8298 34.4133L54.6847 33.9348L54.2062 34.0799L48.516 35.8056L48.0375 35.9507L48.1826 36.4292L49.9082 42.1194L50.0533 42.5979L50.5318 42.4528L56.2221 40.7271ZM46.5208 34.3488L55.0562 31.7604C55.3065 31.6844 55.5768 31.7111 55.8076 31.8344C56.0383 31.9578 56.2106 32.1678 56.2865 32.4181L58.875 40.9535C58.9509 41.2039 58.9243 41.4742 58.8009 41.7049C58.6776 41.9357 58.4676 42.108 58.2172 42.1839L49.6819 44.7724C49.4315 44.8483 49.1612 44.8216 48.9304 44.6983C48.6997 44.5749 48.5274 44.365 48.4515 44.1146L45.863 35.5792C45.7871 35.3288 45.8137 35.0585 45.9371 34.8278C46.0604 34.597 46.2704 34.4248 46.5208 34.3488Z" stroke="#878787"/>
<path d="M41.9916 45.0401L42.4701 44.895L42.325 44.4165L40.5993 38.7263L40.4542 38.2478L39.9757 38.3929L34.2855 40.1186L33.807 40.2637L33.9521 40.7422L35.6778 46.4324L35.8229 46.9109L36.3013 46.7658L41.9916 45.0401ZM32.2903 38.6618L40.8257 36.0734C41.0761 35.9974 41.3464 36.0241 41.5771 36.1474C41.8079 36.2708 41.9801 36.4807 42.0561 36.7311L44.6445 45.2665C44.7205 45.5169 44.6938 45.7872 44.5705 46.0179C44.4471 46.2487 44.2372 46.4209 43.9868 46.4969L35.4514 49.0853C35.201 49.1613 34.9307 49.1346 34.7 49.0113C34.4692 48.8879 34.2969 48.678 34.221 48.4276L31.6325 39.8922C31.5566 39.6418 31.5833 39.3715 31.7066 39.1408C31.83 38.91 32.0399 38.7377 32.2903 38.6618Z" stroke="#878787"/>
<path d="M27.765 49.3546L28.2435 49.2095L28.0984 48.731L26.3728 43.0408L26.2277 42.5623L25.7492 42.7074L20.0589 44.433L19.5805 44.5781L19.7256 45.0566L21.4512 50.7468L21.5963 51.2253L22.0748 51.0802L27.765 49.3546ZM18.0638 42.9763L26.5991 40.3878C26.8495 40.3119 27.1198 40.3385 27.3505 40.4619C27.5813 40.5852 27.7536 40.7952 27.8295 41.0456L30.418 49.5809C30.4939 49.8313 30.4673 50.1016 30.3439 50.3324C30.2206 50.5631 30.0106 50.7354 29.7602 50.8113L21.2248 53.3998C20.9744 53.4757 20.7042 53.4491 20.4734 53.3257C20.2427 53.2024 20.0704 52.9924 19.9945 52.742L17.406 44.2067C17.3301 43.9563 17.3567 43.686 17.4801 43.4552C17.6034 43.2245 17.8134 43.0522 18.0638 42.9763Z" stroke="#878787"/>
<path d="M51.9096 26.5011L52.388 26.356L52.2429 25.8775L50.5173 20.1872L50.3722 19.7088L49.8937 19.8539L44.2035 21.5795L43.725 21.7246L43.8701 22.2031L45.5957 27.8933L45.7408 28.3718L46.2193 28.2267L51.9096 26.5011ZM42.2083 20.1228L50.7437 17.5343C50.994 17.4584 51.2643 17.485 51.4951 17.6084C51.7258 17.7317 51.8981 17.9417 51.974 18.1921L54.5625 26.7274C54.6384 26.9778 54.6118 27.2481 54.4884 27.4789C54.3651 27.7096 54.1551 27.8819 53.9047 27.9578L45.3694 30.5463C45.119 30.6222 44.8487 30.5956 44.6179 30.4722C44.3872 30.3489 44.2149 30.1389 44.139 29.8885L41.5505 21.3531C41.4746 21.1028 41.5012 20.8325 41.6246 20.6017C41.7479 20.371 41.9579 20.1987 42.2083 20.1228Z" stroke="#878787"/>
<path d="M37.6791 30.815L38.1576 30.6699L38.0125 30.1914L36.2868 24.5012L36.1417 24.0227L35.6632 24.1678L29.973 25.8935L29.4945 26.0386L29.6396 26.5171L31.3653 32.2073L31.5104 32.6858L31.9888 32.5407L37.6791 30.815ZM27.9778 24.4367L36.5132 21.8483C36.7636 21.7723 37.0339 21.799 37.2646 21.9223C37.4954 22.0457 37.6676 22.2556 37.7436 22.506L40.332 31.0414C40.408 31.2918 40.3813 31.5621 40.258 31.7928C40.1346 32.0236 39.9247 32.1958 39.6743 32.2718L31.1389 34.8602C30.8885 34.9362 30.6182 34.9095 30.3875 34.7862C30.1567 34.6628 29.9844 34.4529 29.9085 34.2025L27.32 25.6671C27.2441 25.4167 27.2708 25.1464 27.3941 24.9157C27.5175 24.6849 27.7274 24.5127 27.9778 24.4367Z" stroke="#878787"/>
<path d="M23.4564 35.1295L23.9349 34.9844L23.7898 34.5059L22.0642 28.8157L21.9191 28.3372L21.4406 28.4823L15.7503 30.2079L15.2719 30.353L15.417 30.8315L17.1426 36.5218L17.2877 37.0002L17.7662 36.8551L23.4564 35.1295ZM13.7552 28.7512L22.2905 26.1627C22.5409 26.0868 22.8112 26.1134 23.042 26.2368C23.2727 26.3601 23.445 26.5701 23.5209 26.8205L26.1094 35.3558C26.1853 35.6062 26.1587 35.8765 26.0353 36.1073C25.912 36.338 25.702 36.5103 25.4516 36.5862L16.9162 39.1747C16.6659 39.2506 16.3956 39.224 16.1648 39.1006C15.9341 38.9773 15.7618 38.7673 15.6859 38.5169L13.0974 29.9816C13.0215 29.7312 13.0481 29.4609 13.1715 29.2301C13.2948 28.9994 13.5048 28.8271 13.7552 28.7512Z" stroke="#878787"/>
<path d="M54.968 51.9783L55.4465 51.8332L55.3014 51.3547L54.1842 47.671L56.0724 47.0984L57.1895 50.7821L57.3347 51.2606L57.8131 51.1155L61.6023 49.9664L62.1749 51.8545L58.3857 53.0037L57.9073 53.1488L58.0524 53.6272L59.2015 57.4164L57.3133 57.9891L56.1642 54.1999L56.0191 53.7214L55.5406 53.8665L51.7514 55.0156L51.1788 53.1274L54.968 51.9783Z" stroke="#878787"/>
</svg>
